<?xml version="1.0" encoding="UTF-8" standalone="no"?>
<!DOCTYPE svg PUBLIC "-//W3C//DTD SVG 1.1//EN"
 "http://www.w3.org/Graphics/SVG/1.1/DTD/svg11.dtd">
<!-- Generated by graphviz version 2.43.0 (0)
 -->
<!-- Title: snakemake_dag Pages: 1 -->
<svg width="143pt" height="188pt"
 viewBox="0.00 0.00 143.00 188.00" xmlns="http://www.w3.org/2000/svg" xmlns:xlink="http://www.w3.org/1999/xlink">
<g id="graph0" class="graph" transform="scale(1 1) rotate(0) translate(4 184)">
<title>snakemake_dag</title>
<polygon fill="white" stroke="transparent" points="-4,4 -4,-184 139,-184 139,4 -4,4"/>
<!-- 0 -->
<g id="node1" class="node">
<title>0</title>
<path fill="none" stroke="#afd856" stroke-width="2" stroke-dasharray="5,2" d="M55.5,-36C55.5,-36 25.5,-36 25.5,-36 19.5,-36 13.5,-30 13.5,-24 13.5,-24 13.5,-12 13.5,-12 13.5,-6 19.5,0 25.5,0 25.5,0 55.5,0 55.5,0 61.5,0 67.5,-6 67.5,-12 67.5,-12 67.5,-24 67.5,-24 67.5,-30 61.5,-36 55.5,-36"/>
<text text-anchor="middle" x="40.5" y="-15.5" font-family="sans" font-size="10.00">all</text>
</g>
<!-- 1 -->
<g id="node2" class="node">
<title>1</title>
<path fill="none" stroke="#d85656" stroke-width="2" stroke-dasharray="5,2" d="M69,-180C69,-180 12,-180 12,-180 6,-180 0,-174 0,-168 0,-168 0,-156 0,-156 0,-150 6,-144 12,-144 12,-144 69,-144 69,-144 75,-144 81,-150 81,-156 81,-156 81,-168 81,-168 81,-174 75,-180 69,-180"/>
<text text-anchor="middle" x="40.5" y="-159.5" font-family="sans" font-size="10.00">osa_pathway</text>
</g>
<!-- 1&#45;&gt;0 -->
<g id="edge1" class="edge">
<title>1&#45;&gt;0</title>
<path fill="none" stroke="grey" stroke-width="2" d="M31.78,-143.83C27.13,-133.69 21.88,-120.44 19.5,-108 16.5,-92.28 16.5,-87.72 19.5,-72 21.21,-63.06 24.4,-53.7 27.79,-45.37"/>
<polygon fill="grey" stroke="grey" stroke-width="2" points="31.01,-46.73 31.78,-36.17 24.59,-43.95 31.01,-46.73"/>
</g>
<!-- 2 -->
<g id="node3" class="node">
<title>2</title>
<path fill="none" stroke="#56d8a9" stroke-width="2" stroke-dasharray="5,2" d="M123,-108C123,-108 40,-108 40,-108 34,-108 28,-102 28,-96 28,-96 28,-84 28,-84 28,-78 34,-72 40,-72 40,-72 123,-72 123,-72 129,-72 135,-78 135,-84 135,-84 135,-96 135,-96 135,-102 129,-108 123,-108"/>
<text text-anchor="middle" x="81.5" y="-87.5" font-family="sans" font-size="10.00">pathway_to_rapdb</text>
</g>
<!-- 1&#45;&gt;2 -->
<g id="edge3" class="edge">
<title>1&#45;&gt;2</title>
<path fill="none" stroke="grey" stroke-width="2" d="M50.63,-143.7C55.35,-135.64 61.06,-125.89 66.28,-116.98"/>
<polygon fill="grey" stroke="grey" stroke-width="2" points="69.45,-118.5 71.48,-108.1 63.41,-114.96 69.45,-118.5"/>
</g>
<!-- 2&#45;&gt;0 -->
<g id="edge2" class="edge">
<title>2&#45;&gt;0</title>
<path fill="none" stroke="grey" stroke-width="2" d="M71.37,-71.7C66.65,-63.64 60.94,-53.89 55.72,-44.98"/>
<polygon fill="grey" stroke="grey" stroke-width="2" points="58.59,-42.96 50.52,-36.1 52.55,-46.5 58.59,-42.96"/>
</g>
</g>
</svg>
