<?xml version="1.0" encoding="UTF-8" standalone="no"?>
<!DOCTYPE svg PUBLIC "-//W3C//DTD SVG 1.1//EN"
 "http://www.w3.org/Graphics/SVG/1.1/DTD/svg11.dtd">
<!-- Generated by graphviz version 2.43.0 (0)
 -->
<!-- Title: snakemake_dag Pages: 1 -->
<svg width="155pt" height="260pt"
 viewBox="0.00 0.00 154.53 260.00" xmlns="http://www.w3.org/2000/svg" xmlns:xlink="http://www.w3.org/1999/xlink">
<g id="graph0" class="graph" transform="scale(1 1) rotate(0) translate(4 256)">
<title>snakemake_dag</title>
<polygon fill="white" stroke="transparent" points="-4,4 -4,-256 150.53,-256 150.53,4 -4,4"/>
<!-- 0 -->
<g id="node1" class="node">
<title>0</title>
<path fill="none" stroke="#88d856" stroke-width="2" d="M54.53,-36C54.53,-36 24.53,-36 24.53,-36 18.53,-36 12.53,-30 12.53,-24 12.53,-24 12.53,-12 12.53,-12 12.53,-6 18.53,0 24.53,0 24.53,0 54.53,0 54.53,0 60.53,0 66.53,-6 66.53,-12 66.53,-12 66.53,-24 66.53,-24 66.53,-30 60.53,-36 54.53,-36"/>
<text text-anchor="middle" x="39.53" y="-15.5" font-family="sans" font-size="10.00">all</text>
</g>
<!-- 1 -->
<g id="node2" class="node">
<title>1</title>
<path fill="none" stroke="#56d88a" stroke-width="2" d="M55.53,-180C55.53,-180 23.53,-180 23.53,-180 17.53,-180 11.53,-174 11.53,-168 11.53,-168 11.53,-156 11.53,-156 11.53,-150 17.53,-144 23.53,-144 23.53,-144 55.53,-144 55.53,-144 61.53,-144 67.53,-150 67.53,-156 67.53,-156 67.53,-168 67.53,-168 67.53,-174 61.53,-180 55.53,-180"/>
<text text-anchor="middle" x="39.53" y="-159.5" font-family="sans" font-size="10.00">genome</text>
</g>
<!-- 1&#45;&gt;0 -->
<g id="edge1" class="edge">
<title>1&#45;&gt;0</title>
<path fill="none" stroke="grey" stroke-width="2" d="M23.92,-143.77C16.15,-134.03 7.58,-121.18 3.53,-108 -1.18,-92.71 -1.18,-87.29 3.53,-72 6.54,-62.22 12.03,-52.62 17.84,-44.33"/>
<polygon fill="grey" stroke="grey" stroke-width="2" points="20.72,-46.33 23.92,-36.23 15.12,-42.13 20.72,-46.33"/>
</g>
<!-- 3 -->
<g id="node4" class="node">
<title>3</title>
<path fill="none" stroke="#d8bc56" stroke-width="2" d="M54.53,-108C54.53,-108 24.53,-108 24.53,-108 18.53,-108 12.53,-102 12.53,-96 12.53,-96 12.53,-84 12.53,-84 12.53,-78 18.53,-72 24.53,-72 24.53,-72 54.53,-72 54.53,-72 60.53,-72 66.53,-78 66.53,-84 66.53,-84 66.53,-96 66.53,-96 66.53,-102 60.53,-108 54.53,-108"/>
<text text-anchor="middle" x="39.53" y="-87.5" font-family="sans" font-size="10.00">bwa</text>
</g>
<!-- 1&#45;&gt;3 -->
<g id="edge5" class="edge">
<title>1&#45;&gt;3</title>
<path fill="none" stroke="grey" stroke-width="2" d="M39.53,-143.7C39.53,-135.98 39.53,-126.71 39.53,-118.11"/>
<polygon fill="grey" stroke="grey" stroke-width="2" points="43.03,-118.1 39.53,-108.1 36.03,-118.1 43.03,-118.1"/>
</g>
<!-- 2 -->
<g id="node3" class="node">
<title>2</title>
<path fill="none" stroke="#56c1d8" stroke-width="2" stroke-dasharray="5,2" d="M87.53,-252C87.53,-252 47.53,-252 47.53,-252 41.53,-252 35.53,-246 35.53,-240 35.53,-240 35.53,-228 35.53,-228 35.53,-222 41.53,-216 47.53,-216 47.53,-216 87.53,-216 87.53,-216 93.53,-216 99.53,-222 99.53,-228 99.53,-228 99.53,-240 99.53,-240 99.53,-246 93.53,-252 87.53,-252"/>
<text text-anchor="middle" x="67.53" y="-231.5" font-family="sans" font-size="10.00">download</text>
</g>
<!-- 2&#45;&gt;1 -->
<g id="edge4" class="edge">
<title>2&#45;&gt;1</title>
<path fill="none" stroke="grey" stroke-width="2" d="M60.61,-215.7C57.45,-207.81 53.65,-198.3 50.15,-189.55"/>
<polygon fill="grey" stroke="grey" stroke-width="2" points="53.33,-188.09 46.37,-180.1 46.83,-190.69 53.33,-188.09"/>
</g>
<!-- 4 -->
<g id="node5" class="node">
<title>4</title>
<path fill="none" stroke="#d85656" stroke-width="2" stroke-dasharray="5,2" d="M134.53,-108C134.53,-108 96.53,-108 96.53,-108 90.53,-108 84.53,-102 84.53,-96 84.53,-96 84.53,-84 84.53,-84 84.53,-78 90.53,-72 96.53,-72 96.53,-72 134.53,-72 134.53,-72 140.53,-72 146.53,-78 146.53,-84 146.53,-84 146.53,-96 146.53,-96 146.53,-102 140.53,-108 134.53,-108"/>
<text text-anchor="middle" x="115.53" y="-87.5" font-family="sans" font-size="10.00">make_gtf</text>
</g>
<!-- 2&#45;&gt;4 -->
<g id="edge6" class="edge">
<title>2&#45;&gt;4</title>
<path fill="none" stroke="grey" stroke-width="2" d="M73.32,-215.87C81.53,-191.56 96.66,-146.82 106.4,-118.01"/>
<polygon fill="grey" stroke="grey" stroke-width="2" points="109.83,-118.78 109.72,-108.19 103.2,-116.54 109.83,-118.78"/>
</g>
<!-- 3&#45;&gt;0 -->
<g id="edge2" class="edge">
<title>3&#45;&gt;0</title>
<path fill="none" stroke="grey" stroke-width="2" d="M39.53,-71.7C39.53,-63.98 39.53,-54.71 39.53,-46.11"/>
<polygon fill="grey" stroke="grey" stroke-width="2" points="43.03,-46.1 39.53,-36.1 36.03,-46.1 43.03,-46.1"/>
</g>
<!-- 4&#45;&gt;0 -->
<g id="edge3" class="edge">
<title>4&#45;&gt;0</title>
<path fill="none" stroke="grey" stroke-width="2" d="M96.74,-71.7C87.35,-63.05 75.84,-52.45 65.61,-43.03"/>
<polygon fill="grey" stroke="grey" stroke-width="2" points="67.82,-40.3 58.1,-36.1 63.08,-45.45 67.82,-40.3"/>
</g>
</g>
</svg>
