<?xml version="1.0" encoding="UTF-8" standalone="no"?>
<!DOCTYPE svg PUBLIC "-//W3C//DTD SVG 1.1//EN"
 "http://www.w3.org/Graphics/SVG/1.1/DTD/svg11.dtd">
<!-- Generated by graphviz version 2.43.0 (0)
 -->
<!-- Title: snakemake_dag Pages: 1 -->
<svg width="143pt" height="188pt"
 viewBox="0.00 0.00 143.00 188.00" xmlns="http://www.w3.org/2000/svg" xmlns:xlink="http://www.w3.org/1999/xlink">
<g id="graph0" class="graph" transform="scale(1 1) rotate(0) translate(4 184)">
<title>snakemake_dag</title>
<polygon fill="white" stroke="transparent" points="-4,4 -4,-184 139,-184 139,4 -4,4"/>
<!-- 0 -->
<g id="node1" class="node">
<title>0</title>
<path fill="none" stroke="#d6d856" stroke-width="2" stroke-dasharray="5,2" d="M81,-36C81,-36 51,-36 51,-36 45,-36 39,-30 39,-24 39,-24 39,-12 39,-12 39,-6 45,0 51,0 51,0 81,0 81,0 87,0 93,-6 93,-12 93,-12 93,-24 93,-24 93,-30 87,-36 81,-36"/>
<text text-anchor="middle" x="66" y="-15.5" font-family="sans" font-size="10.00">all</text>
</g>
<!-- 1 -->
<g id="node2" class="node">
<title>1</title>
<path fill="none" stroke="#56d8d8" stroke-width="2" stroke-dasharray="5,2" d="M43,-108C43,-108 13,-108 13,-108 7,-108 1,-102 1,-96 1,-96 1,-84 1,-84 1,-78 7,-72 13,-72 13,-72 43,-72 43,-72 49,-72 55,-78 55,-84 55,-84 55,-96 55,-96 55,-102 49,-108 43,-108"/>
<text text-anchor="middle" x="28" y="-87.5" font-family="sans" font-size="10.00">bwa</text>
</g>
<!-- 1&#45;&gt;0 -->
<g id="edge1" class="edge">
<title>1&#45;&gt;0</title>
<path fill="none" stroke="grey" stroke-width="2" d="M37.39,-71.7C41.76,-63.64 47.06,-53.89 51.9,-44.98"/>
<polygon fill="grey" stroke="grey" stroke-width="2" points="55.02,-46.56 56.71,-36.1 48.87,-43.22 55.02,-46.56"/>
</g>
<!-- 2 -->
<g id="node3" class="node">
<title>2</title>
<path fill="none" stroke="#59d856" stroke-width="2" stroke-dasharray="5,2" d="M44,-180C44,-180 12,-180 12,-180 6,-180 0,-174 0,-168 0,-168 0,-156 0,-156 0,-150 6,-144 12,-144 12,-144 44,-144 44,-144 50,-144 56,-150 56,-156 56,-156 56,-168 56,-168 56,-174 50,-180 44,-180"/>
<text text-anchor="middle" x="28" y="-159.5" font-family="sans" font-size="10.00">genome</text>
</g>
<!-- 2&#45;&gt;1 -->
<g id="edge3" class="edge">
<title>2&#45;&gt;1</title>
<path fill="none" stroke="grey" stroke-width="2" d="M28,-143.7C28,-135.98 28,-126.71 28,-118.11"/>
<polygon fill="grey" stroke="grey" stroke-width="2" points="31.5,-118.1 28,-108.1 24.5,-118.1 31.5,-118.1"/>
</g>
<!-- 3 -->
<g id="node4" class="node">
<title>3</title>
<path fill="none" stroke="#d85656" stroke-width="2" stroke-dasharray="5,2" d="M123,-108C123,-108 85,-108 85,-108 79,-108 73,-102 73,-96 73,-96 73,-84 73,-84 73,-78 79,-72 85,-72 85,-72 123,-72 123,-72 129,-72 135,-78 135,-84 135,-84 135,-96 135,-96 135,-102 129,-108 123,-108"/>
<text text-anchor="middle" x="104" y="-87.5" font-family="sans" font-size="10.00">make_gtf</text>
</g>
<!-- 3&#45;&gt;0 -->
<g id="edge2" class="edge">
<title>3&#45;&gt;0</title>
<path fill="none" stroke="grey" stroke-width="2" d="M94.61,-71.7C90.24,-63.64 84.94,-53.89 80.1,-44.98"/>
<polygon fill="grey" stroke="grey" stroke-width="2" points="83.13,-43.22 75.29,-36.1 76.98,-46.56 83.13,-43.22"/>
</g>
</g>
</svg>
