<?xml version="1.0" encoding="UTF-8" standalone="no"?>
<!DOCTYPE svg PUBLIC "-//W3C//DTD SVG 1.1//EN"
 "http://www.w3.org/Graphics/SVG/1.1/DTD/svg11.dtd">
<!-- Generated by graphviz version 2.43.0 (0)
 -->
<!-- Title: snakemake_dag Pages: 1 -->
<svg width="237pt" height="260pt"
 viewBox="0.00 0.00 236.54 260.00" xmlns="http://www.w3.org/2000/svg" xmlns:xlink="http://www.w3.org/1999/xlink">
<g id="graph0" class="graph" transform="scale(1 1) rotate(0) translate(4 256)">
<title>snakemake_dag</title>
<polygon fill="white" stroke="transparent" points="-4,4 -4,-256 232.54,-256 232.54,4 -4,4"/>
<!-- 0 -->
<g id="node1" class="node">
<title>0</title>
<path fill="none" stroke="#d8a456" stroke-width="2" stroke-dasharray="5,2" d="M95.54,-36C95.54,-36 65.54,-36 65.54,-36 59.54,-36 53.54,-30 53.54,-24 53.54,-24 53.54,-12 53.54,-12 53.54,-6 59.54,0 65.54,0 65.54,0 95.54,0 95.54,0 101.54,0 107.54,-6 107.54,-12 107.54,-12 107.54,-24 107.54,-24 107.54,-30 101.54,-36 95.54,-36"/>
<text text-anchor="middle" x="80.54" y="-15.5" font-family="sans" font-size="10.00">all</text>
</g>
<!-- 1 -->
<g id="node2" class="node">
<title>1</title>
<path fill="none" stroke="#78d856" stroke-width="2" stroke-dasharray="5,2" d="M97.54,-180C97.54,-180 65.54,-180 65.54,-180 59.54,-180 53.54,-174 53.54,-168 53.54,-168 53.54,-156 53.54,-156 53.54,-150 59.54,-144 65.54,-144 65.54,-144 97.54,-144 97.54,-144 103.54,-144 109.54,-150 109.54,-156 109.54,-156 109.54,-168 109.54,-168 109.54,-174 103.54,-180 97.54,-180"/>
<text text-anchor="middle" x="81.54" y="-159.5" font-family="sans" font-size="10.00">genome</text>
</g>
<!-- 1&#45;&gt;0 -->
<g id="edge1" class="edge">
<title>1&#45;&gt;0</title>
<path fill="none" stroke="grey" stroke-width="2" d="M53.39,-149.58C36.17,-140.94 15.59,-127.25 5.54,-108 -1.86,-93.81 -1.82,-86.21 5.54,-72 13.86,-55.94 29.53,-43.7 44.41,-35.06"/>
<polygon fill="grey" stroke="grey" stroke-width="2" points="46.37,-37.98 53.5,-30.14 43.04,-31.82 46.37,-37.98"/>
</g>
<!-- 3 -->
<g id="node4" class="node">
<title>3</title>
<path fill="none" stroke="#56d8c9" stroke-width="2" stroke-dasharray="5,2" d="M56.54,-108C56.54,-108 26.54,-108 26.54,-108 20.54,-108 14.54,-102 14.54,-96 14.54,-96 14.54,-84 14.54,-84 14.54,-78 20.54,-72 26.54,-72 26.54,-72 56.54,-72 56.54,-72 62.54,-72 68.54,-78 68.54,-84 68.54,-84 68.54,-96 68.54,-96 68.54,-102 62.54,-108 56.54,-108"/>
<text text-anchor="middle" x="41.54" y="-87.5" font-family="sans" font-size="10.00">bwa</text>
</g>
<!-- 1&#45;&gt;3 -->
<g id="edge6" class="edge">
<title>1&#45;&gt;3</title>
<path fill="none" stroke="grey" stroke-width="2" d="M71.65,-143.7C67.05,-135.64 61.48,-125.89 56.39,-116.98"/>
<polygon fill="grey" stroke="grey" stroke-width="2" points="59.31,-115.05 51.31,-108.1 53.24,-118.52 59.31,-115.05"/>
</g>
<!-- 4 -->
<g id="node5" class="node">
<title>4</title>
<path fill="none" stroke="#56d87b" stroke-width="2" stroke-dasharray="5,2" d="M142.54,-108C142.54,-108 98.54,-108 98.54,-108 92.54,-108 86.54,-102 86.54,-96 86.54,-96 86.54,-84 86.54,-84 86.54,-78 92.54,-72 98.54,-72 98.54,-72 142.54,-72 142.54,-72 148.54,-72 154.54,-78 154.54,-84 154.54,-84 154.54,-96 154.54,-96 154.54,-102 148.54,-108 142.54,-108"/>
<text text-anchor="middle" x="120.54" y="-87.5" font-family="sans" font-size="10.00">star_index</text>
</g>
<!-- 1&#45;&gt;4 -->
<g id="edge7" class="edge">
<title>1&#45;&gt;4</title>
<path fill="none" stroke="grey" stroke-width="2" d="M91.18,-143.7C95.67,-135.64 101.1,-125.89 106.06,-116.98"/>
<polygon fill="grey" stroke="grey" stroke-width="2" points="109.2,-118.54 111.01,-108.1 103.09,-115.14 109.2,-118.54"/>
</g>
<!-- 6 -->
<g id="node7" class="node">
<title>6</title>
<path fill="none" stroke="#56a2d8" stroke-width="2" stroke-dasharray="5,2" d="M216.54,-108C216.54,-108 184.54,-108 184.54,-108 178.54,-108 172.54,-102 172.54,-96 172.54,-96 172.54,-84 172.54,-84 172.54,-78 178.54,-72 184.54,-72 184.54,-72 216.54,-72 216.54,-72 222.54,-72 228.54,-78 228.54,-84 228.54,-84 228.54,-96 228.54,-96 228.54,-102 222.54,-108 216.54,-108"/>
<text text-anchor="middle" x="200.54" y="-87.5" font-family="sans" font-size="10.00">annovar</text>
</g>
<!-- 1&#45;&gt;6 -->
<g id="edge10" class="edge">
<title>1&#45;&gt;6</title>
<path fill="none" stroke="grey" stroke-width="2" d="M109.74,-144.41C125.78,-134.98 146.06,-123.05 163.38,-112.86"/>
<polygon fill="grey" stroke="grey" stroke-width="2" points="165.28,-115.8 172.13,-107.71 161.73,-109.77 165.28,-115.8"/>
</g>
<!-- 2 -->
<g id="node3" class="node">
<title>2</title>
<path fill="none" stroke="#c6d856" stroke-width="2" stroke-dasharray="5,2" d="M139.54,-252C139.54,-252 99.54,-252 99.54,-252 93.54,-252 87.54,-246 87.54,-240 87.54,-240 87.54,-228 87.54,-228 87.54,-222 93.54,-216 99.54,-216 99.54,-216 139.54,-216 139.54,-216 145.54,-216 151.54,-222 151.54,-228 151.54,-228 151.54,-240 151.54,-240 151.54,-246 145.54,-252 139.54,-252"/>
<text text-anchor="middle" x="119.54" y="-231.5" font-family="sans" font-size="10.00">download</text>
</g>
<!-- 2&#45;&gt;1 -->
<g id="edge5" class="edge">
<title>2&#45;&gt;1</title>
<path fill="none" stroke="grey" stroke-width="2" d="M110.15,-215.7C105.78,-207.64 100.48,-197.89 95.64,-188.98"/>
<polygon fill="grey" stroke="grey" stroke-width="2" points="98.67,-187.22 90.83,-180.1 92.52,-190.56 98.67,-187.22"/>
</g>
<!-- 5 -->
<g id="node6" class="node">
<title>5</title>
<path fill="none" stroke="#d85656" stroke-width="2" stroke-dasharray="5,2" d="M177.54,-180C177.54,-180 139.54,-180 139.54,-180 133.54,-180 127.54,-174 127.54,-168 127.54,-168 127.54,-156 127.54,-156 127.54,-150 133.54,-144 139.54,-144 139.54,-144 177.54,-144 177.54,-144 183.54,-144 189.54,-150 189.54,-156 189.54,-156 189.54,-168 189.54,-168 189.54,-174 183.54,-180 177.54,-180"/>
<text text-anchor="middle" x="158.54" y="-159.5" font-family="sans" font-size="10.00">make_gtf</text>
</g>
<!-- 2&#45;&gt;5 -->
<g id="edge9" class="edge">
<title>2&#45;&gt;5</title>
<path fill="none" stroke="grey" stroke-width="2" d="M129.18,-215.7C133.67,-207.64 139.1,-197.89 144.06,-188.98"/>
<polygon fill="grey" stroke="grey" stroke-width="2" points="147.2,-190.54 149.01,-180.1 141.09,-187.14 147.2,-190.54"/>
</g>
<!-- 3&#45;&gt;0 -->
<g id="edge2" class="edge">
<title>3&#45;&gt;0</title>
<path fill="none" stroke="grey" stroke-width="2" d="M51.18,-71.7C55.67,-63.64 61.1,-53.89 66.06,-44.98"/>
<polygon fill="grey" stroke="grey" stroke-width="2" points="69.2,-46.54 71.01,-36.1 63.09,-43.14 69.2,-46.54"/>
</g>
<!-- 4&#45;&gt;0 -->
<g id="edge3" class="edge">
<title>4&#45;&gt;0</title>
<path fill="none" stroke="grey" stroke-width="2" d="M110.65,-71.7C106.05,-63.64 100.48,-53.89 95.39,-44.98"/>
<polygon fill="grey" stroke="grey" stroke-width="2" points="98.31,-43.05 90.31,-36.1 92.24,-46.52 98.31,-43.05"/>
</g>
<!-- 5&#45;&gt;4 -->
<g id="edge8" class="edge">
<title>5&#45;&gt;4</title>
<path fill="none" stroke="grey" stroke-width="2" d="M149.15,-143.7C144.78,-135.64 139.48,-125.89 134.64,-116.98"/>
<polygon fill="grey" stroke="grey" stroke-width="2" points="137.67,-115.22 129.83,-108.1 131.52,-118.56 137.67,-115.22"/>
</g>
<!-- 5&#45;&gt;6 -->
<g id="edge11" class="edge">
<title>5&#45;&gt;6</title>
<path fill="none" stroke="grey" stroke-width="2" d="M168.92,-143.7C173.8,-135.56 179.73,-125.69 185.12,-116.7"/>
<polygon fill="grey" stroke="grey" stroke-width="2" points="188.13,-118.48 190.28,-108.1 182.13,-114.88 188.13,-118.48"/>
</g>
<!-- 6&#45;&gt;0 -->
<g id="edge4" class="edge">
<title>6&#45;&gt;0</title>
<path fill="none" stroke="grey" stroke-width="2" d="M172.41,-72.59C155.77,-62.88 134.53,-50.49 116.67,-40.07"/>
<polygon fill="grey" stroke="grey" stroke-width="2" points="118.07,-36.84 107.67,-34.83 114.55,-42.89 118.07,-36.84"/>
</g>
</g>
</svg>
