<?xml version="1.0" encoding="UTF-8" standalone="no"?>
<!DOCTYPE svg PUBLIC "-//W3C//DTD SVG 1.1//EN"
 "http://www.w3.org/Graphics/SVG/1.1/DTD/svg11.dtd">
<!-- Generated by graphviz version 2.43.0 (0)
 -->
<!-- Title: snakemake_dag Pages: 1 -->
<svg width="866pt" height="332pt"
 viewBox="0.00 0.00 866.00 332.00" xmlns="http://www.w3.org/2000/svg" xmlns:xlink="http://www.w3.org/1999/xlink">
<g id="graph0" class="graph" transform="scale(1 1) rotate(0) translate(4 328)">
<title>snakemake_dag</title>
<polygon fill="white" stroke="transparent" points="-4,4 -4,-328 862,-328 862,4 -4,4"/>
<!-- 0 -->
<g id="node1" class="node">
<title>0</title>
<path fill="none" stroke="#d85656" stroke-width="2" stroke-dasharray="5,2" d="M447,-36C447,-36 417,-36 417,-36 411,-36 405,-30 405,-24 405,-24 405,-12 405,-12 405,-6 411,0 417,0 417,0 447,0 447,0 453,0 459,-6 459,-12 459,-12 459,-24 459,-24 459,-30 453,-36 447,-36"/>
<text text-anchor="middle" x="432" y="-15.5" font-family="sans" font-size="10.00">all</text>
</g>
<!-- 1 -->
<g id="node2" class="node">
<title>1</title>
<path fill="none" stroke="#d88556" stroke-width="2" stroke-dasharray="5,2" d="M319,-108C319,-108 289,-108 289,-108 283,-108 277,-102 277,-96 277,-96 277,-84 277,-84 277,-78 283,-72 289,-72 289,-72 319,-72 319,-72 325,-72 331,-78 331,-84 331,-84 331,-96 331,-96 331,-102 325,-108 319,-108"/>
<text text-anchor="middle" x="304" y="-87.5" font-family="sans" font-size="10.00">bwa</text>
</g>
<!-- 1&#45;&gt;0 -->
<g id="edge1" class="edge">
<title>1&#45;&gt;0</title>
<path fill="none" stroke="grey" stroke-width="2" d="M331.15,-74.15C350.07,-63.81 375.51,-49.89 396.11,-38.63"/>
<polygon fill="grey" stroke="grey" stroke-width="2" points="397.8,-41.69 404.89,-33.82 394.44,-35.55 397.8,-41.69"/>
</g>
<!-- 2 -->
<g id="node3" class="node">
<title>2</title>
<path fill="none" stroke="#56d87b" stroke-width="2" stroke-dasharray="5,2" d="M278,-180C278,-180 246,-180 246,-180 240,-180 234,-174 234,-168 234,-168 234,-156 234,-156 234,-150 240,-144 246,-144 246,-144 278,-144 278,-144 284,-144 290,-150 290,-156 290,-156 290,-168 290,-168 290,-174 284,-180 278,-180"/>
<text text-anchor="middle" x="262" y="-159.5" font-family="sans" font-size="10.00">genome</text>
</g>
<!-- 2&#45;&gt;1 -->
<g id="edge11" class="edge">
<title>2&#45;&gt;1</title>
<path fill="none" stroke="grey" stroke-width="2" d="M272.38,-143.7C277.26,-135.56 283.19,-125.69 288.58,-116.7"/>
<polygon fill="grey" stroke="grey" stroke-width="2" points="291.59,-118.48 293.74,-108.1 285.59,-114.88 291.59,-118.48"/>
</g>
<!-- 4 -->
<g id="node5" class="node">
<title>4</title>
<path fill="none" stroke="#d86e56" stroke-width="2" stroke-dasharray="5,2" d="M44,-108C44,-108 12,-108 12,-108 6,-108 0,-102 0,-96 0,-96 0,-84 0,-84 0,-78 6,-72 12,-72 12,-72 44,-72 44,-72 50,-72 56,-78 56,-84 56,-84 56,-96 56,-96 56,-102 50,-108 44,-108"/>
<text text-anchor="middle" x="28" y="-87.5" font-family="sans" font-size="10.00">bowtie2</text>
</g>
<!-- 2&#45;&gt;4 -->
<g id="edge13" class="edge">
<title>2&#45;&gt;4</title>
<path fill="none" stroke="grey" stroke-width="2" d="M233.81,-154.99C196.97,-146.79 130.41,-130.83 65.62,-107.92"/>
<polygon fill="grey" stroke="grey" stroke-width="2" points="66.67,-104.58 56.08,-104.49 64.3,-111.17 66.67,-104.58"/>
</g>
<!-- 9 -->
<g id="node10" class="node">
<title>9</title>
<path fill="none" stroke="#5682d8" stroke-width="2" stroke-dasharray="5,2" d="M499,-108C499,-108 455,-108 455,-108 449,-108 443,-102 443,-96 443,-96 443,-84 443,-84 443,-78 449,-72 455,-72 455,-72 499,-72 499,-72 505,-72 511,-78 511,-84 511,-84 511,-96 511,-96 511,-102 505,-108 499,-108"/>
<text text-anchor="middle" x="477" y="-87.5" font-family="sans" font-size="10.00">star_index</text>
</g>
<!-- 2&#45;&gt;9 -->
<g id="edge17" class="edge">
<title>2&#45;&gt;9</title>
<path fill="none" stroke="grey" stroke-width="2" d="M290.22,-153.03C322.6,-143.73 377.46,-127.5 433.15,-108.17"/>
<polygon fill="grey" stroke="grey" stroke-width="2" points="434.54,-111.4 442.82,-104.79 432.23,-104.79 434.54,-111.4"/>
</g>
<!-- 10 -->
<g id="node11" class="node">
<title>10</title>
<path fill="none" stroke="#566bd8" stroke-width="2" stroke-dasharray="5,2" d="M150,-108C150,-108 86,-108 86,-108 80,-108 74,-102 74,-96 74,-96 74,-84 74,-84 74,-78 80,-72 86,-72 86,-72 150,-72 150,-72 156,-72 162,-78 162,-84 162,-84 162,-96 162,-96 162,-102 156,-108 150,-108"/>
<text text-anchor="middle" x="118" y="-87.5" font-family="sans" font-size="10.00">subread_index</text>
</g>
<!-- 2&#45;&gt;10 -->
<g id="edge19" class="edge">
<title>2&#45;&gt;10</title>
<path fill="none" stroke="grey" stroke-width="2" d="M233.89,-147.34C213.52,-137.43 185.56,-123.84 162.2,-112.49"/>
<polygon fill="grey" stroke="grey" stroke-width="2" points="163.7,-109.32 153.18,-108.1 160.64,-115.62 163.7,-109.32"/>
</g>
<!-- 11 -->
<g id="node12" class="node">
<title>11</title>
<path fill="none" stroke="#56d892" stroke-width="2" stroke-dasharray="5,2" d="M246.5,-108C246.5,-108 191.5,-108 191.5,-108 185.5,-108 179.5,-102 179.5,-96 179.5,-96 179.5,-84 179.5,-84 179.5,-78 185.5,-72 191.5,-72 191.5,-72 246.5,-72 246.5,-72 252.5,-72 258.5,-78 258.5,-84 258.5,-84 258.5,-96 258.5,-96 258.5,-102 252.5,-108 246.5,-108"/>
<text text-anchor="middle" x="219" y="-87.5" font-family="sans" font-size="10.00">hisat2_index</text>
</g>
<!-- 2&#45;&gt;11 -->
<g id="edge20" class="edge">
<title>2&#45;&gt;11</title>
<path fill="none" stroke="grey" stroke-width="2" d="M251.37,-143.7C246.37,-135.56 240.31,-125.69 234.79,-116.7"/>
<polygon fill="grey" stroke="grey" stroke-width="2" points="237.72,-114.79 229.51,-108.1 231.76,-118.46 237.72,-114.79"/>
</g>
<!-- 12 -->
<g id="node13" class="node">
<title>12</title>
<path fill="none" stroke="#d8b456" stroke-width="2" stroke-dasharray="5,2" d="M413,-108C413,-108 361,-108 361,-108 355,-108 349,-102 349,-96 349,-96 349,-84 349,-84 349,-78 355,-72 361,-72 361,-72 413,-72 413,-72 419,-72 425,-78 425,-84 425,-84 425,-96 425,-96 425,-102 419,-108 413,-108"/>
<text text-anchor="middle" x="387" y="-87.5" font-family="sans" font-size="10.00">custom_bed</text>
</g>
<!-- 2&#45;&gt;12 -->
<g id="edge22" class="edge">
<title>2&#45;&gt;12</title>
<path fill="none" stroke="grey" stroke-width="2" d="M290.05,-145.29C307,-135.8 328.87,-123.55 347.54,-113.1"/>
<polygon fill="grey" stroke="grey" stroke-width="2" points="349.4,-116.07 356.42,-108.13 345.98,-109.96 349.4,-116.07"/>
</g>
<!-- 3 -->
<g id="node4" class="node">
<title>3</title>
<path fill="none" stroke="#bed856" stroke-width="2" stroke-dasharray="5,2" d="M304.5,-252C304.5,-252 219.5,-252 219.5,-252 213.5,-252 207.5,-246 207.5,-240 207.5,-240 207.5,-228 207.5,-228 207.5,-222 213.5,-216 219.5,-216 219.5,-216 304.5,-216 304.5,-216 310.5,-216 316.5,-222 316.5,-228 316.5,-228 316.5,-240 316.5,-240 316.5,-246 310.5,-252 304.5,-252"/>
<text text-anchor="middle" x="262" y="-231.5" font-family="sans" font-size="10.00">download_genome</text>
</g>
<!-- 3&#45;&gt;2 -->
<g id="edge12" class="edge">
<title>3&#45;&gt;2</title>
<path fill="none" stroke="grey" stroke-width="2" d="M262,-215.7C262,-207.98 262,-198.71 262,-190.11"/>
<polygon fill="grey" stroke="grey" stroke-width="2" points="265.5,-190.1 262,-180.1 258.5,-190.1 265.5,-190.1"/>
</g>
<!-- 4&#45;&gt;0 -->
<g id="edge2" class="edge">
<title>4&#45;&gt;0</title>
<path fill="none" stroke="grey" stroke-width="2" d="M56.37,-74.98C59.24,-73.86 62.15,-72.84 65,-72 182.21,-37.4 327.41,-24.97 394.62,-20.86"/>
<polygon fill="grey" stroke="grey" stroke-width="2" points="394.95,-24.34 404.73,-20.27 394.54,-17.36 394.95,-24.34"/>
</g>
<!-- 5 -->
<g id="node6" class="node">
<title>5</title>
<path fill="none" stroke="#56b1d8" stroke-width="2" stroke-dasharray="5,2" d="M492,-180C492,-180 454,-180 454,-180 448,-180 442,-174 442,-168 442,-168 442,-156 442,-156 442,-150 448,-144 454,-144 454,-144 492,-144 492,-144 498,-144 504,-150 504,-156 504,-156 504,-168 504,-168 504,-174 498,-180 492,-180"/>
<text text-anchor="middle" x="473" y="-159.5" font-family="sans" font-size="10.00">make_gtf</text>
</g>
<!-- 5&#45;&gt;0 -->
<g id="edge3" class="edge">
<title>5&#45;&gt;0</title>
<path fill="none" stroke="grey" stroke-width="2" d="M494.27,-143.7C504.11,-134.31 514.76,-121.8 520,-108 525.68,-93.04 527.87,-85.93 520,-72 508.97,-52.47 487.54,-39.34 468.59,-31.03"/>
<polygon fill="grey" stroke="grey" stroke-width="2" points="469.84,-27.77 459.26,-27.23 467.2,-34.25 469.84,-27.77"/>
</g>
<!-- 5&#45;&gt;9 -->
<g id="edge18" class="edge">
<title>5&#45;&gt;9</title>
<path fill="none" stroke="grey" stroke-width="2" d="M473.99,-143.7C474.43,-135.98 474.96,-126.71 475.45,-118.11"/>
<polygon fill="grey" stroke="grey" stroke-width="2" points="478.95,-118.29 476.02,-108.1 471.96,-117.89 478.95,-118.29"/>
</g>
<!-- 5&#45;&gt;12 -->
<g id="edge21" class="edge">
<title>5&#45;&gt;12</title>
<path fill="none" stroke="grey" stroke-width="2" d="M451.74,-143.7C440.91,-134.88 427.58,-124.03 415.84,-114.47"/>
<polygon fill="grey" stroke="grey" stroke-width="2" points="417.98,-111.7 408.01,-108.1 413.56,-117.13 417.98,-111.7"/>
</g>
<!-- 6 -->
<g id="node7" class="node">
<title>6</title>
<path fill="none" stroke="#d89c56" stroke-width="2" stroke-dasharray="5,2" d="M528,-252C528,-252 498,-252 498,-252 492,-252 486,-246 486,-240 486,-240 486,-228 486,-228 486,-222 492,-216 498,-216 498,-216 528,-216 528,-216 534,-216 540,-222 540,-228 540,-228 540,-240 540,-240 540,-246 534,-252 528,-252"/>
<text text-anchor="middle" x="513" y="-231.5" font-family="sans" font-size="10.00">cat_gff</text>
</g>
<!-- 6&#45;&gt;5 -->
<g id="edge14" class="edge">
<title>6&#45;&gt;5</title>
<path fill="none" stroke="grey" stroke-width="2" d="M503.11,-215.7C498.51,-207.64 492.94,-197.89 487.85,-188.98"/>
<polygon fill="grey" stroke="grey" stroke-width="2" points="490.77,-187.05 482.77,-180.1 484.7,-190.52 490.77,-187.05"/>
</g>
<!-- 8 -->
<g id="node9" class="node">
<title>8</title>
<path fill="none" stroke="#56c9d8" stroke-width="2" stroke-dasharray="5,2" d="M572,-180C572,-180 534,-180 534,-180 528,-180 522,-174 522,-168 522,-168 522,-156 522,-156 522,-150 528,-144 534,-144 534,-144 572,-144 572,-144 578,-144 584,-150 584,-156 584,-156 584,-168 584,-168 584,-174 578,-180 572,-180"/>
<text text-anchor="middle" x="553" y="-159.5" font-family="sans" font-size="10.00">make_gff</text>
</g>
<!-- 6&#45;&gt;8 -->
<g id="edge16" class="edge">
<title>6&#45;&gt;8</title>
<path fill="none" stroke="grey" stroke-width="2" d="M522.89,-215.7C527.49,-207.64 533.06,-197.89 538.15,-188.98"/>
<polygon fill="grey" stroke="grey" stroke-width="2" points="541.3,-190.52 543.23,-180.1 535.23,-187.05 541.3,-190.52"/>
</g>
<!-- 7 -->
<g id="node8" class="node">
<title>7</title>
<path fill="none" stroke="#a7d856" stroke-width="2" stroke-dasharray="5,2" d="M542,-324C542,-324 484,-324 484,-324 478,-324 472,-318 472,-312 472,-312 472,-300 472,-300 472,-294 478,-288 484,-288 484,-288 542,-288 542,-288 548,-288 554,-294 554,-300 554,-300 554,-312 554,-312 554,-318 548,-324 542,-324"/>
<text text-anchor="middle" x="513" y="-303.5" font-family="sans" font-size="10.00">download_gff</text>
</g>
<!-- 7&#45;&gt;6 -->
<g id="edge15" class="edge">
<title>7&#45;&gt;6</title>
<path fill="none" stroke="grey" stroke-width="2" d="M513,-287.7C513,-279.98 513,-270.71 513,-262.11"/>
<polygon fill="grey" stroke="grey" stroke-width="2" points="516.5,-262.1 513,-252.1 509.5,-262.1 516.5,-262.1"/>
</g>
<!-- 8&#45;&gt;0 -->
<g id="edge4" class="edge">
<title>8&#45;&gt;0</title>
<path fill="none" stroke="grey" stroke-width="2" d="M554.22,-143.83C554.7,-124.49 552.67,-93.02 537,-72 520.52,-49.9 492.22,-36.36 469.15,-28.51"/>
<polygon fill="grey" stroke="grey" stroke-width="2" points="469.89,-25.08 459.3,-25.39 467.78,-31.75 469.89,-25.08"/>
</g>
<!-- 9&#45;&gt;0 -->
<g id="edge5" class="edge">
<title>9&#45;&gt;0</title>
<path fill="none" stroke="grey" stroke-width="2" d="M465.88,-71.7C460.64,-63.56 454.3,-53.69 448.52,-44.7"/>
<polygon fill="grey" stroke="grey" stroke-width="2" points="451.35,-42.62 443,-36.1 445.46,-46.41 451.35,-42.62"/>
</g>
<!-- 10&#45;&gt;0 -->
<g id="edge6" class="edge">
<title>10&#45;&gt;0</title>
<path fill="none" stroke="grey" stroke-width="2" d="M162.15,-74.18C164.8,-73.41 167.43,-72.68 170,-72 249.35,-51.08 344.07,-33.77 395.08,-25.07"/>
<polygon fill="grey" stroke="grey" stroke-width="2" points="395.71,-28.51 404.98,-23.4 394.54,-21.61 395.71,-28.51"/>
</g>
<!-- 11&#45;&gt;0 -->
<g id="edge7" class="edge">
<title>11&#45;&gt;0</title>
<path fill="none" stroke="grey" stroke-width="2" d="M258.56,-75.2C261.75,-74.11 264.93,-73.03 268,-72 311.58,-57.4 361.91,-41.24 395.2,-30.65"/>
<polygon fill="grey" stroke="grey" stroke-width="2" points="396.48,-33.91 404.95,-27.55 394.36,-27.24 396.48,-33.91"/>
</g>
<!-- 12&#45;&gt;0 -->
<g id="edge8" class="edge">
<title>12&#45;&gt;0</title>
<path fill="none" stroke="grey" stroke-width="2" d="M398.12,-71.7C403.36,-63.56 409.7,-53.69 415.48,-44.7"/>
<polygon fill="grey" stroke="grey" stroke-width="2" points="418.54,-46.41 421,-36.1 412.65,-42.62 418.54,-46.41"/>
</g>
<!-- 13 -->
<g id="node14" class="node">
<title>13</title>
<path fill="none" stroke="#56d8d0" stroke-width="2" stroke-dasharray="5,2" d="M696.5,-108C696.5,-108 623.5,-108 623.5,-108 617.5,-108 611.5,-102 611.5,-96 611.5,-96 611.5,-84 611.5,-84 611.5,-78 617.5,-72 623.5,-72 623.5,-72 696.5,-72 696.5,-72 702.5,-72 708.5,-78 708.5,-84 708.5,-84 708.5,-96 708.5,-96 708.5,-102 702.5,-108 696.5,-108"/>
<text text-anchor="middle" x="660" y="-87.5" font-family="sans" font-size="10.00">make_gene_info</text>
</g>
<!-- 13&#45;&gt;0 -->
<g id="edge9" class="edge">
<title>13&#45;&gt;0</title>
<path fill="none" stroke="grey" stroke-width="2" d="M611.37,-74.07C568.75,-60.98 507.72,-42.25 468.98,-30.35"/>
<polygon fill="grey" stroke="grey" stroke-width="2" points="469.74,-26.93 459.16,-27.34 467.69,-33.62 469.74,-26.93"/>
</g>
<!-- 14 -->
<g id="node15" class="node">
<title>14</title>
<path fill="none" stroke="#d6d856" stroke-width="2" stroke-dasharray="5,2" d="M712,-180C712,-180 614,-180 614,-180 608,-180 602,-174 602,-168 602,-168 602,-156 602,-156 602,-150 608,-144 614,-144 614,-144 712,-144 712,-144 718,-144 724,-150 724,-156 724,-156 724,-168 724,-168 724,-174 718,-180 712,-180"/>
<text text-anchor="middle" x="663" y="-159.5" font-family="sans" font-size="10.00">download_annotation</text>
</g>
<!-- 14&#45;&gt;13 -->
<g id="edge23" class="edge">
<title>14&#45;&gt;13</title>
<path fill="none" stroke="grey" stroke-width="2" d="M662.26,-143.7C661.93,-135.98 661.53,-126.71 661.16,-118.11"/>
<polygon fill="grey" stroke="grey" stroke-width="2" points="664.66,-117.95 660.73,-108.1 657.66,-118.25 664.66,-117.95"/>
</g>
<!-- 15 -->
<g id="node16" class="node">
<title>15</title>
<path fill="none" stroke="#569ad8" stroke-width="2" stroke-dasharray="5,2" d="M816.5,-108C816.5,-108 755.5,-108 755.5,-108 749.5,-108 743.5,-102 743.5,-96 743.5,-96 743.5,-84 743.5,-84 743.5,-78 749.5,-72 755.5,-72 755.5,-72 816.5,-72 816.5,-72 822.5,-72 828.5,-78 828.5,-84 828.5,-84 828.5,-96 828.5,-96 828.5,-102 822.5,-108 816.5,-108"/>
<text text-anchor="middle" x="786" y="-87.5" font-family="sans" font-size="10.00">salmon_index</text>
</g>
<!-- 15&#45;&gt;0 -->
<g id="edge10" class="edge">
<title>15&#45;&gt;0</title>
<path fill="none" stroke="grey" stroke-width="2" d="M743.29,-77.9C734.93,-75.84 726.2,-73.78 718,-72 629.23,-52.7 523.98,-34.35 469.25,-25.15"/>
<polygon fill="grey" stroke="grey" stroke-width="2" points="469.76,-21.68 459.32,-23.48 468.61,-28.59 469.76,-21.68"/>
</g>
<!-- 16 -->
<g id="node17" class="node">
<title>16</title>
<path fill="none" stroke="#56d863" stroke-width="2" stroke-dasharray="5,2" d="M846,-180C846,-180 754,-180 754,-180 748,-180 742,-174 742,-168 742,-168 742,-156 742,-156 742,-150 748,-144 754,-144 754,-144 846,-144 846,-144 852,-144 858,-150 858,-156 858,-156 858,-168 858,-168 858,-174 852,-180 846,-180"/>
<text text-anchor="middle" x="800" y="-159.5" font-family="sans" font-size="10.00">download_transcript</text>
</g>
<!-- 16&#45;&gt;15 -->
<g id="edge24" class="edge">
<title>16&#45;&gt;15</title>
<path fill="none" stroke="grey" stroke-width="2" d="M796.54,-143.7C795,-135.98 793.14,-126.71 791.42,-118.11"/>
<polygon fill="grey" stroke="grey" stroke-width="2" points="794.81,-117.22 789.42,-108.1 787.95,-118.6 794.81,-117.22"/>
</g>
</g>
</svg>
