<?xml version="1.0" encoding="UTF-8" standalone="no"?>
<!DOCTYPE svg PUBLIC "-//W3C//DTD SVG 1.1//EN"
 "http://www.w3.org/Graphics/SVG/1.1/DTD/svg11.dtd">
<!-- Generated by graphviz version 2.43.0 (0)
 -->
<!-- Title: snakemake_dag Pages: 1 -->
<svg width="619pt" height="260pt"
 viewBox="0.00 0.00 619.00 260.00" xmlns="http://www.w3.org/2000/svg" xmlns:xlink="http://www.w3.org/1999/xlink">
<g id="graph0" class="graph" transform="scale(1 1) rotate(0) translate(4 256)">
<title>snakemake_dag</title>
<polygon fill="white" stroke="transparent" points="-4,4 -4,-256 615,-256 615,4 -4,4"/>
<!-- 0 -->
<g id="node1" class="node">
<title>0</title>
<path fill="none" stroke="#ced856" stroke-width="2" stroke-dasharray="5,2" d="M322,-36C322,-36 292,-36 292,-36 286,-36 280,-30 280,-24 280,-24 280,-12 280,-12 280,-6 286,0 292,0 292,0 322,0 322,0 328,0 334,-6 334,-12 334,-12 334,-24 334,-24 334,-30 328,-36 322,-36"/>
<text text-anchor="middle" x="307" y="-15.5" font-family="sans" font-size="10.00">all</text>
</g>
<!-- 1 -->
<g id="node2" class="node">
<title>1</title>
<path fill="none" stroke="#d8bc56" stroke-width="2" stroke-dasharray="5,2" d="M110,-108C110,-108 12,-108 12,-108 6,-108 0,-102 0,-96 0,-96 0,-84 0,-84 0,-78 6,-72 12,-72 12,-72 110,-72 110,-72 116,-72 122,-78 122,-84 122,-84 122,-96 122,-96 122,-102 116,-108 110,-108"/>
<text text-anchor="middle" x="61" y="-87.5" font-family="sans" font-size="10.00">download_annotation</text>
</g>
<!-- 1&#45;&gt;0 -->
<g id="edge1" class="edge">
<title>1&#45;&gt;0</title>
<path fill="none" stroke="grey" stroke-width="2" d="M120.86,-71.97C167.44,-58.71 230.59,-40.74 270.05,-29.51"/>
<polygon fill="grey" stroke="grey" stroke-width="2" points="271.13,-32.85 279.79,-26.74 269.21,-26.11 271.13,-32.85"/>
</g>
<!-- 2 -->
<g id="node3" class="node">
<title>2</title>
<path fill="none" stroke="#d85656" stroke-width="2" stroke-dasharray="5,2" d="M362,-108C362,-108 332,-108 332,-108 326,-108 320,-102 320,-96 320,-96 320,-84 320,-84 320,-78 326,-72 332,-72 332,-72 362,-72 362,-72 368,-72 374,-78 374,-84 374,-84 374,-96 374,-96 374,-102 368,-108 362,-108"/>
<text text-anchor="middle" x="347" y="-87.5" font-family="sans" font-size="10.00">bwa</text>
</g>
<!-- 2&#45;&gt;0 -->
<g id="edge2" class="edge">
<title>2&#45;&gt;0</title>
<path fill="none" stroke="grey" stroke-width="2" d="M337.11,-71.7C332.51,-63.64 326.94,-53.89 321.85,-44.98"/>
<polygon fill="grey" stroke="grey" stroke-width="2" points="324.77,-43.05 316.77,-36.1 318.7,-46.52 324.77,-43.05"/>
</g>
<!-- 3 -->
<g id="node4" class="node">
<title>3</title>
<path fill="none" stroke="#56c1d8" stroke-width="2" stroke-dasharray="5,2" d="M325,-180C325,-180 293,-180 293,-180 287,-180 281,-174 281,-168 281,-168 281,-156 281,-156 281,-150 287,-144 293,-144 293,-144 325,-144 325,-144 331,-144 337,-150 337,-156 337,-156 337,-168 337,-168 337,-174 331,-180 325,-180"/>
<text text-anchor="middle" x="309" y="-159.5" font-family="sans" font-size="10.00">genome</text>
</g>
<!-- 3&#45;&gt;2 -->
<g id="edge7" class="edge">
<title>3&#45;&gt;2</title>
<path fill="none" stroke="grey" stroke-width="2" d="M318.39,-143.7C322.76,-135.64 328.06,-125.89 332.9,-116.98"/>
<polygon fill="grey" stroke="grey" stroke-width="2" points="336.02,-118.56 337.71,-108.1 329.87,-115.22 336.02,-118.56"/>
</g>
<!-- 5 -->
<g id="node6" class="node">
<title>5</title>
<path fill="none" stroke="#d89c56" stroke-width="2" stroke-dasharray="5,2" d="M290,-108C290,-108 246,-108 246,-108 240,-108 234,-102 234,-96 234,-96 234,-84 234,-84 234,-78 240,-72 246,-72 246,-72 290,-72 290,-72 296,-72 302,-78 302,-84 302,-84 302,-96 302,-96 302,-102 296,-108 290,-108"/>
<text text-anchor="middle" x="268" y="-87.5" font-family="sans" font-size="10.00">star_index</text>
</g>
<!-- 3&#45;&gt;5 -->
<g id="edge9" class="edge">
<title>3&#45;&gt;5</title>
<path fill="none" stroke="grey" stroke-width="2" d="M298.87,-143.7C294.15,-135.64 288.44,-125.89 283.22,-116.98"/>
<polygon fill="grey" stroke="grey" stroke-width="2" points="286.09,-114.96 278.02,-108.1 280.05,-118.5 286.09,-114.96"/>
</g>
<!-- 4 -->
<g id="node5" class="node">
<title>4</title>
<path fill="none" stroke="#d87556" stroke-width="2" stroke-dasharray="5,2" d="M351.5,-252C351.5,-252 266.5,-252 266.5,-252 260.5,-252 254.5,-246 254.5,-240 254.5,-240 254.5,-228 254.5,-228 254.5,-222 260.5,-216 266.5,-216 266.5,-216 351.5,-216 351.5,-216 357.5,-216 363.5,-222 363.5,-228 363.5,-228 363.5,-240 363.5,-240 363.5,-246 357.5,-252 351.5,-252"/>
<text text-anchor="middle" x="309" y="-231.5" font-family="sans" font-size="10.00">download_genome</text>
</g>
<!-- 4&#45;&gt;3 -->
<g id="edge8" class="edge">
<title>4&#45;&gt;3</title>
<path fill="none" stroke="grey" stroke-width="2" d="M309,-215.7C309,-207.98 309,-198.71 309,-190.11"/>
<polygon fill="grey" stroke="grey" stroke-width="2" points="312.5,-190.1 309,-180.1 305.5,-190.1 312.5,-190.1"/>
</g>
<!-- 5&#45;&gt;0 -->
<g id="edge3" class="edge">
<title>5&#45;&gt;0</title>
<path fill="none" stroke="grey" stroke-width="2" d="M277.64,-71.7C282.13,-63.64 287.56,-53.89 292.52,-44.98"/>
<polygon fill="grey" stroke="grey" stroke-width="2" points="295.66,-46.54 297.47,-36.1 289.55,-43.14 295.66,-46.54"/>
</g>
<!-- 6 -->
<g id="node7" class="node">
<title>6</title>
<path fill="none" stroke="#56d86b" stroke-width="2" stroke-dasharray="5,2" d="M204,-180C204,-180 166,-180 166,-180 160,-180 154,-174 154,-168 154,-168 154,-156 154,-156 154,-150 160,-144 166,-144 166,-144 204,-144 204,-144 210,-144 216,-150 216,-156 216,-156 216,-168 216,-168 216,-174 210,-180 204,-180"/>
<text text-anchor="middle" x="185" y="-159.5" font-family="sans" font-size="10.00">make_gtf</text>
</g>
<!-- 6&#45;&gt;5 -->
<g id="edge10" class="edge">
<title>6&#45;&gt;5</title>
<path fill="none" stroke="grey" stroke-width="2" d="M205.52,-143.7C215.87,-134.97 228.59,-124.24 239.84,-114.75"/>
<polygon fill="grey" stroke="grey" stroke-width="2" points="242.33,-117.23 247.72,-108.1 237.82,-111.88 242.33,-117.23"/>
</g>
<!-- 12 -->
<g id="node13" class="node">
<title>12</title>
<path fill="none" stroke="#56d8d0" stroke-width="2" stroke-dasharray="5,2" d="M204,-108C204,-108 152,-108 152,-108 146,-108 140,-102 140,-96 140,-96 140,-84 140,-84 140,-78 146,-72 152,-72 152,-72 204,-72 204,-72 210,-72 216,-78 216,-84 216,-84 216,-96 216,-96 216,-102 210,-108 204,-108"/>
<text text-anchor="middle" x="178" y="-87.5" font-family="sans" font-size="10.00">custom_bed</text>
</g>
<!-- 6&#45;&gt;12 -->
<g id="edge14" class="edge">
<title>6&#45;&gt;12</title>
<path fill="none" stroke="grey" stroke-width="2" d="M183.27,-143.7C182.5,-135.98 181.57,-126.71 180.71,-118.11"/>
<polygon fill="grey" stroke="grey" stroke-width="2" points="184.19,-117.71 179.71,-108.1 177.22,-118.4 184.19,-117.71"/>
</g>
<!-- 7 -->
<g id="node8" class="node">
<title>7</title>
<path fill="none" stroke="#56d8a9" stroke-width="2" stroke-dasharray="5,2" d="M214,-252C214,-252 156,-252 156,-252 150,-252 144,-246 144,-240 144,-240 144,-228 144,-228 144,-222 150,-216 156,-216 156,-216 214,-216 214,-216 220,-216 226,-222 226,-228 226,-228 226,-240 226,-240 226,-246 220,-252 214,-252"/>
<text text-anchor="middle" x="185" y="-231.5" font-family="sans" font-size="10.00">download_gff</text>
</g>
<!-- 7&#45;&gt;6 -->
<g id="edge11" class="edge">
<title>7&#45;&gt;6</title>
<path fill="none" stroke="grey" stroke-width="2" d="M185,-215.7C185,-207.98 185,-198.71 185,-190.11"/>
<polygon fill="grey" stroke="grey" stroke-width="2" points="188.5,-190.1 185,-180.1 181.5,-190.1 188.5,-190.1"/>
</g>
<!-- 8 -->
<g id="node9" class="node">
<title>8</title>
<path fill="none" stroke="#afd856" stroke-width="2" stroke-dasharray="5,2" d="M457.5,-108C457.5,-108 404.5,-108 404.5,-108 398.5,-108 392.5,-102 392.5,-96 392.5,-96 392.5,-84 392.5,-84 392.5,-78 398.5,-72 404.5,-72 404.5,-72 457.5,-72 457.5,-72 463.5,-72 469.5,-78 469.5,-84 469.5,-84 469.5,-96 469.5,-96 469.5,-102 463.5,-108 457.5,-108"/>
<text text-anchor="middle" x="431" y="-87.5" font-family="sans" font-size="10.00">id_converter</text>
</g>
<!-- 8&#45;&gt;0 -->
<g id="edge4" class="edge">
<title>8&#45;&gt;0</title>
<path fill="none" stroke="grey" stroke-width="2" d="M400.67,-71.88C383.25,-62.04 361.27,-49.64 342.98,-39.31"/>
<polygon fill="grey" stroke="grey" stroke-width="2" points="344.5,-36.15 334.07,-34.28 341.05,-42.24 344.5,-36.15"/>
</g>
<!-- 9 -->
<g id="node10" class="node">
<title>9</title>
<path fill="none" stroke="#56d88a" stroke-width="2" stroke-dasharray="5,2" d="M477,-180C477,-180 371,-180 371,-180 365,-180 359,-174 359,-168 359,-168 359,-156 359,-156 359,-150 365,-144 371,-144 371,-144 477,-144 477,-144 483,-144 489,-150 489,-156 489,-156 489,-168 489,-168 489,-174 483,-180 477,-180"/>
<text text-anchor="middle" x="424" y="-159.5" font-family="sans" font-size="10.00">download_id_converter</text>
</g>
<!-- 9&#45;&gt;8 -->
<g id="edge12" class="edge">
<title>9&#45;&gt;8</title>
<path fill="none" stroke="grey" stroke-width="2" d="M425.73,-143.7C426.5,-135.98 427.43,-126.71 428.29,-118.11"/>
<polygon fill="grey" stroke="grey" stroke-width="2" points="431.78,-118.4 429.29,-108.1 424.81,-117.71 431.78,-118.4"/>
</g>
<!-- 10 -->
<g id="node11" class="node">
<title>10</title>
<path fill="none" stroke="#567bd8" stroke-width="2" stroke-dasharray="5,2" d="M593,-108C593,-108 513,-108 513,-108 507,-108 501,-102 501,-96 501,-96 501,-84 501,-84 501,-78 507,-72 513,-72 513,-72 593,-72 593,-72 599,-72 605,-78 605,-84 605,-84 605,-96 605,-96 605,-102 599,-108 593,-108"/>
<text text-anchor="middle" x="553" y="-87.5" font-family="sans" font-size="10.00">diamond_makedb</text>
</g>
<!-- 10&#45;&gt;0 -->
<g id="edge5" class="edge">
<title>10&#45;&gt;0</title>
<path fill="none" stroke="grey" stroke-width="2" d="M500.83,-74.15C453.66,-60.73 385.42,-41.31 343.75,-29.46"/>
<polygon fill="grey" stroke="grey" stroke-width="2" points="344.59,-26.06 334.02,-26.69 342.68,-32.79 344.59,-26.06"/>
</g>
<!-- 11 -->
<g id="node12" class="node">
<title>11</title>
<path fill="none" stroke="#569ad8" stroke-width="2" stroke-dasharray="5,2" d="M599,-180C599,-180 519,-180 519,-180 513,-180 507,-174 507,-168 507,-168 507,-156 507,-156 507,-150 513,-144 519,-144 519,-144 599,-144 599,-144 605,-144 611,-150 611,-156 611,-156 611,-168 611,-168 611,-174 605,-180 599,-180"/>
<text text-anchor="middle" x="559" y="-159.5" font-family="sans" font-size="10.00">download_protein</text>
</g>
<!-- 11&#45;&gt;10 -->
<g id="edge13" class="edge">
<title>11&#45;&gt;10</title>
<path fill="none" stroke="grey" stroke-width="2" d="M557.52,-143.7C556.86,-135.98 556.06,-126.71 555.32,-118.11"/>
<polygon fill="grey" stroke="grey" stroke-width="2" points="558.81,-117.77 554.47,-108.1 551.83,-118.37 558.81,-117.77"/>
</g>
<!-- 12&#45;&gt;0 -->
<g id="edge6" class="edge">
<title>12&#45;&gt;0</title>
<path fill="none" stroke="grey" stroke-width="2" d="M209.56,-71.88C228.1,-61.81 251.61,-49.05 270.9,-38.59"/>
<polygon fill="grey" stroke="grey" stroke-width="2" points="272.58,-41.66 279.7,-33.81 269.24,-35.51 272.58,-41.66"/>
</g>
</g>
</svg>
