<?xml version="1.0" encoding="UTF-8" standalone="no"?>
<!DOCTYPE svg PUBLIC "-//W3C//DTD SVG 1.1//EN"
 "http://www.w3.org/Graphics/SVG/1.1/DTD/svg11.dtd">
<!-- Generated by graphviz version 2.43.0 (0)
 -->
<!-- Title: snakemake_dag Pages: 1 -->
<svg width="507pt" height="260pt"
 viewBox="0.00 0.00 507.00 260.00" xmlns="http://www.w3.org/2000/svg" xmlns:xlink="http://www.w3.org/1999/xlink">
<g id="graph0" class="graph" transform="scale(1 1) rotate(0) translate(4 256)">
<title>snakemake_dag</title>
<polygon fill="white" stroke="transparent" points="-4,4 -4,-256 503,-256 503,4 -4,4"/>
<!-- 0 -->
<g id="node1" class="node">
<title>0</title>
<path fill="none" stroke="#56d88a" stroke-width="2" stroke-dasharray="5,2" d="M304.5,-36C304.5,-36 274.5,-36 274.5,-36 268.5,-36 262.5,-30 262.5,-24 262.5,-24 262.5,-12 262.5,-12 262.5,-6 268.5,0 274.5,0 274.5,0 304.5,0 304.5,0 310.5,0 316.5,-6 316.5,-12 316.5,-12 316.5,-24 316.5,-24 316.5,-30 310.5,-36 304.5,-36"/>
<text text-anchor="middle" x="289.5" y="-15.5" font-family="sans" font-size="10.00">all</text>
</g>
<!-- 1 -->
<g id="node2" class="node">
<title>1</title>
<path fill="none" stroke="#d8bc56" stroke-width="2" stroke-dasharray="5,2" d="M111,-108C111,-108 12,-108 12,-108 6,-108 0,-102 0,-96 0,-96 0,-84 0,-84 0,-78 6,-72 12,-72 12,-72 111,-72 111,-72 117,-72 123,-78 123,-84 123,-84 123,-96 123,-96 123,-102 117,-108 111,-108"/>
<text text-anchor="middle" x="61.5" y="-87.5" font-family="sans" font-size="10.00">download_description</text>
</g>
<!-- 1&#45;&gt;0 -->
<g id="edge1" class="edge">
<title>1&#45;&gt;0</title>
<path fill="none" stroke="grey" stroke-width="2" d="M116.98,-71.97C159.15,-59.02 215.98,-41.57 252.68,-30.3"/>
<polygon fill="grey" stroke="grey" stroke-width="2" points="253.94,-33.58 262.47,-27.3 251.89,-26.89 253.94,-33.58"/>
</g>
<!-- 2 -->
<g id="node3" class="node">
<title>2</title>
<path fill="none" stroke="#88d856" stroke-width="2" stroke-dasharray="5,2" d="M221.5,-108C221.5,-108 153.5,-108 153.5,-108 147.5,-108 141.5,-102 141.5,-96 141.5,-96 141.5,-84 141.5,-84 141.5,-78 147.5,-72 153.5,-72 153.5,-72 221.5,-72 221.5,-72 227.5,-72 233.5,-78 233.5,-84 233.5,-84 233.5,-96 233.5,-96 233.5,-102 227.5,-108 221.5,-108"/>
<text text-anchor="middle" x="187.5" y="-87.5" font-family="sans" font-size="10.00">download_alias</text>
</g>
<!-- 2&#45;&gt;0 -->
<g id="edge2" class="edge">
<title>2&#45;&gt;0</title>
<path fill="none" stroke="grey" stroke-width="2" d="M212.45,-71.88C225.54,-62.89 241.76,-51.76 255.94,-42.03"/>
<polygon fill="grey" stroke="grey" stroke-width="2" points="258.19,-44.73 264.45,-36.19 254.23,-38.96 258.19,-44.73"/>
</g>
<!-- 3 -->
<g id="node4" class="node">
<title>3</title>
<path fill="none" stroke="#bed856" stroke-width="2" stroke-dasharray="5,2" d="M473.5,-108C473.5,-108 443.5,-108 443.5,-108 437.5,-108 431.5,-102 431.5,-96 431.5,-96 431.5,-84 431.5,-84 431.5,-78 437.5,-72 443.5,-72 443.5,-72 473.5,-72 473.5,-72 479.5,-72 485.5,-78 485.5,-84 485.5,-84 485.5,-96 485.5,-96 485.5,-102 479.5,-108 473.5,-108"/>
<text text-anchor="middle" x="458.5" y="-87.5" font-family="sans" font-size="10.00">bwa</text>
</g>
<!-- 3&#45;&gt;0 -->
<g id="edge3" class="edge">
<title>3&#45;&gt;0</title>
<path fill="none" stroke="grey" stroke-width="2" d="M431.46,-76.01C428.45,-74.63 425.42,-73.27 422.5,-72 390.22,-57.96 352.96,-43.24 326.1,-32.88"/>
<polygon fill="grey" stroke="grey" stroke-width="2" points="327.29,-29.59 316.7,-29.27 324.78,-36.13 327.29,-29.59"/>
</g>
<!-- 4 -->
<g id="node5" class="node">
<title>4</title>
<path fill="none" stroke="#56c1d8" stroke-width="2" stroke-dasharray="5,2" d="M460.5,-180C460.5,-180 428.5,-180 428.5,-180 422.5,-180 416.5,-174 416.5,-168 416.5,-168 416.5,-156 416.5,-156 416.5,-150 422.5,-144 428.5,-144 428.5,-144 460.5,-144 460.5,-144 466.5,-144 472.5,-150 472.5,-156 472.5,-156 472.5,-168 472.5,-168 472.5,-174 466.5,-180 460.5,-180"/>
<text text-anchor="middle" x="444.5" y="-159.5" font-family="sans" font-size="10.00">genome</text>
</g>
<!-- 4&#45;&gt;3 -->
<g id="edge6" class="edge">
<title>4&#45;&gt;3</title>
<path fill="none" stroke="grey" stroke-width="2" d="M447.96,-143.7C449.5,-135.98 451.36,-126.71 453.08,-118.11"/>
<polygon fill="grey" stroke="grey" stroke-width="2" points="456.55,-118.6 455.08,-108.1 449.69,-117.22 456.55,-118.6"/>
</g>
<!-- 6 -->
<g id="node7" class="node">
<title>6</title>
<path fill="none" stroke="#59d856" stroke-width="2" stroke-dasharray="5,2" d="M401.5,-108C401.5,-108 357.5,-108 357.5,-108 351.5,-108 345.5,-102 345.5,-96 345.5,-96 345.5,-84 345.5,-84 345.5,-78 351.5,-72 357.5,-72 357.5,-72 401.5,-72 401.5,-72 407.5,-72 413.5,-78 413.5,-84 413.5,-84 413.5,-96 413.5,-96 413.5,-102 407.5,-108 401.5,-108"/>
<text text-anchor="middle" x="379.5" y="-87.5" font-family="sans" font-size="10.00">star_index</text>
</g>
<!-- 4&#45;&gt;6 -->
<g id="edge8" class="edge">
<title>4&#45;&gt;6</title>
<path fill="none" stroke="grey" stroke-width="2" d="M428.43,-143.7C420.56,-135.22 410.94,-124.86 402.33,-115.58"/>
<polygon fill="grey" stroke="grey" stroke-width="2" points="404.75,-113.05 395.38,-108.1 399.62,-117.81 404.75,-113.05"/>
</g>
<!-- 5 -->
<g id="node6" class="node">
<title>5</title>
<path fill="none" stroke="#d88d56" stroke-width="2" stroke-dasharray="5,2" d="M487,-252C487,-252 402,-252 402,-252 396,-252 390,-246 390,-240 390,-240 390,-228 390,-228 390,-222 396,-216 402,-216 402,-216 487,-216 487,-216 493,-216 499,-222 499,-228 499,-228 499,-240 499,-240 499,-246 493,-252 487,-252"/>
<text text-anchor="middle" x="444.5" y="-231.5" font-family="sans" font-size="10.00">download_genome</text>
</g>
<!-- 5&#45;&gt;4 -->
<g id="edge7" class="edge">
<title>5&#45;&gt;4</title>
<path fill="none" stroke="grey" stroke-width="2" d="M444.5,-215.7C444.5,-207.98 444.5,-198.71 444.5,-190.11"/>
<polygon fill="grey" stroke="grey" stroke-width="2" points="448,-190.1 444.5,-180.1 441,-190.1 448,-190.1"/>
</g>
<!-- 6&#45;&gt;0 -->
<g id="edge4" class="edge">
<title>6&#45;&gt;0</title>
<path fill="none" stroke="grey" stroke-width="2" d="M357.25,-71.7C345.92,-62.88 331.97,-52.03 319.68,-42.47"/>
<polygon fill="grey" stroke="grey" stroke-width="2" points="321.53,-39.48 311.49,-36.1 317.24,-45.01 321.53,-39.48"/>
</g>
<!-- 7 -->
<g id="node8" class="node">
<title>7</title>
<path fill="none" stroke="#56d8c1" stroke-width="2" stroke-dasharray="5,2" d="M322.5,-180C322.5,-180 284.5,-180 284.5,-180 278.5,-180 272.5,-174 272.5,-168 272.5,-168 272.5,-156 272.5,-156 272.5,-150 278.5,-144 284.5,-144 284.5,-144 322.5,-144 322.5,-144 328.5,-144 334.5,-150 334.5,-156 334.5,-156 334.5,-168 334.5,-168 334.5,-174 328.5,-180 322.5,-180"/>
<text text-anchor="middle" x="303.5" y="-159.5" font-family="sans" font-size="10.00">make_gtf</text>
</g>
<!-- 7&#45;&gt;6 -->
<g id="edge9" class="edge">
<title>7&#45;&gt;6</title>
<path fill="none" stroke="grey" stroke-width="2" d="M322.29,-143.7C331.67,-135.05 343.18,-124.45 353.41,-115.03"/>
<polygon fill="grey" stroke="grey" stroke-width="2" points="355.95,-117.45 360.93,-108.1 351.2,-112.3 355.95,-117.45"/>
</g>
<!-- 9 -->
<g id="node10" class="node">
<title>9</title>
<path fill="none" stroke="#568ad8" stroke-width="2" stroke-dasharray="5,2" d="M315.5,-108C315.5,-108 263.5,-108 263.5,-108 257.5,-108 251.5,-102 251.5,-96 251.5,-96 251.5,-84 251.5,-84 251.5,-78 257.5,-72 263.5,-72 263.5,-72 315.5,-72 315.5,-72 321.5,-72 327.5,-78 327.5,-84 327.5,-84 327.5,-96 327.5,-96 327.5,-102 321.5,-108 315.5,-108"/>
<text text-anchor="middle" x="289.5" y="-87.5" font-family="sans" font-size="10.00">custom_bed</text>
</g>
<!-- 7&#45;&gt;9 -->
<g id="edge11" class="edge">
<title>7&#45;&gt;9</title>
<path fill="none" stroke="grey" stroke-width="2" d="M300.04,-143.7C298.5,-135.98 296.64,-126.71 294.92,-118.11"/>
<polygon fill="grey" stroke="grey" stroke-width="2" points="298.31,-117.22 292.92,-108.1 291.45,-118.6 298.31,-117.22"/>
</g>
<!-- 8 -->
<g id="node9" class="node">
<title>8</title>
<path fill="none" stroke="#d85656" stroke-width="2" stroke-dasharray="5,2" d="M333,-252C333,-252 274,-252 274,-252 268,-252 262,-246 262,-240 262,-240 262,-228 262,-228 262,-222 268,-216 274,-216 274,-216 333,-216 333,-216 339,-216 345,-222 345,-228 345,-228 345,-240 345,-240 345,-246 339,-252 333,-252"/>
<text text-anchor="middle" x="303.5" y="-231.5" font-family="sans" font-size="10.00">download_gtf</text>
</g>
<!-- 8&#45;&gt;7 -->
<g id="edge10" class="edge">
<title>8&#45;&gt;7</title>
<path fill="none" stroke="grey" stroke-width="2" d="M303.5,-215.7C303.5,-207.98 303.5,-198.71 303.5,-190.11"/>
<polygon fill="grey" stroke="grey" stroke-width="2" points="307,-190.1 303.5,-180.1 300,-190.1 307,-190.1"/>
</g>
<!-- 9&#45;&gt;0 -->
<g id="edge5" class="edge">
<title>9&#45;&gt;0</title>
<path fill="none" stroke="grey" stroke-width="2" d="M289.5,-71.7C289.5,-63.98 289.5,-54.71 289.5,-46.11"/>
<polygon fill="grey" stroke="grey" stroke-width="2" points="293,-46.1 289.5,-36.1 286,-46.1 293,-46.1"/>
</g>
</g>
</svg>
