<?xml version="1.0" encoding="UTF-8" standalone="no"?>
<!DOCTYPE svg PUBLIC "-//W3C//DTD SVG 1.1//EN"
 "http://www.w3.org/Graphics/SVG/1.1/DTD/svg11.dtd">
<!-- Generated by graphviz version 2.43.0 (0)
 -->
<!-- Title: snakemake_dag Pages: 1 -->
<svg width="287pt" height="260pt"
 viewBox="0.00 0.00 286.83 260.00" xmlns="http://www.w3.org/2000/svg" xmlns:xlink="http://www.w3.org/1999/xlink">
<g id="graph0" class="graph" transform="scale(1 1) rotate(0) translate(4 256)">
<title>snakemake_dag</title>
<polygon fill="white" stroke="transparent" points="-4,4 -4,-256 282.83,-256 282.83,4 -4,4"/>
<!-- 0 -->
<g id="node1" class="node">
<title>0</title>
<path fill="none" stroke="#d85656" stroke-width="2" d="M94.33,-36C94.33,-36 64.33,-36 64.33,-36 58.33,-36 52.33,-30 52.33,-24 52.33,-24 52.33,-12 52.33,-12 52.33,-6 58.33,0 64.33,0 64.33,0 94.33,0 94.33,0 100.33,0 106.33,-6 106.33,-12 106.33,-12 106.33,-24 106.33,-24 106.33,-30 100.33,-36 94.33,-36"/>
<text text-anchor="middle" x="79.33" y="-15.5" font-family="sans" font-size="10.00">all</text>
</g>
<!-- 1 -->
<g id="node2" class="node">
<title>1</title>
<path fill="none" stroke="#56d87b" stroke-width="2" stroke-dasharray="5,2" d="M59.33,-180C59.33,-180 27.33,-180 27.33,-180 21.33,-180 15.33,-174 15.33,-168 15.33,-168 15.33,-156 15.33,-156 15.33,-150 21.33,-144 27.33,-144 27.33,-144 59.33,-144 59.33,-144 65.33,-144 71.33,-150 71.33,-156 71.33,-156 71.33,-168 71.33,-168 71.33,-174 65.33,-180 59.33,-180"/>
<text text-anchor="middle" x="43.33" y="-159.5" font-family="sans" font-size="10.00">genome</text>
</g>
<!-- 1&#45;&gt;0 -->
<g id="edge1" class="edge">
<title>1&#45;&gt;0</title>
<path fill="none" stroke="grey" stroke-width="2" d="M26.62,-143.96C10.95,-125.82 -8.32,-96.42 4.33,-72 12.65,-55.94 28.32,-43.7 43.2,-35.06"/>
<polygon fill="grey" stroke="grey" stroke-width="2" points="45.16,-37.98 52.29,-30.14 41.83,-31.82 45.16,-37.98"/>
</g>
<!-- 3 -->
<g id="node4" class="node">
<title>3</title>
<path fill="none" stroke="#c6d856" stroke-width="2" stroke-dasharray="5,2" d="M55.33,-108C55.33,-108 25.33,-108 25.33,-108 19.33,-108 13.33,-102 13.33,-96 13.33,-96 13.33,-84 13.33,-84 13.33,-78 19.33,-72 25.33,-72 25.33,-72 55.33,-72 55.33,-72 61.33,-72 67.33,-78 67.33,-84 67.33,-84 67.33,-96 67.33,-96 67.33,-102 61.33,-108 55.33,-108"/>
<text text-anchor="middle" x="40.33" y="-87.5" font-family="sans" font-size="10.00">bwa</text>
</g>
<!-- 1&#45;&gt;3 -->
<g id="edge6" class="edge">
<title>1&#45;&gt;3</title>
<path fill="none" stroke="grey" stroke-width="2" d="M42.59,-143.7C42.26,-135.98 41.86,-126.71 41.49,-118.11"/>
<polygon fill="grey" stroke="grey" stroke-width="2" points="44.99,-117.95 41.06,-108.1 37.99,-118.25 44.99,-117.95"/>
</g>
<!-- 4 -->
<g id="node5" class="node">
<title>4</title>
<path fill="none" stroke="#56a2d8" stroke-width="2" d="M141.33,-108C141.33,-108 97.33,-108 97.33,-108 91.33,-108 85.33,-102 85.33,-96 85.33,-96 85.33,-84 85.33,-84 85.33,-78 91.33,-72 97.33,-72 97.33,-72 141.33,-72 141.33,-72 147.33,-72 153.33,-78 153.33,-84 153.33,-84 153.33,-96 153.33,-96 153.33,-102 147.33,-108 141.33,-108"/>
<text text-anchor="middle" x="119.33" y="-87.5" font-family="sans" font-size="10.00">star_index</text>
</g>
<!-- 1&#45;&gt;4 -->
<g id="edge7" class="edge">
<title>1&#45;&gt;4</title>
<path fill="none" stroke="grey" stroke-width="2" d="M62.11,-143.7C71.5,-135.05 83.01,-124.45 93.24,-115.03"/>
<polygon fill="grey" stroke="grey" stroke-width="2" points="95.77,-117.45 100.76,-108.1 91.03,-112.3 95.77,-117.45"/>
</g>
<!-- 2 -->
<g id="node3" class="node">
<title>2</title>
<path fill="none" stroke="#56d8c9" stroke-width="2" stroke-dasharray="5,2" d="M139.33,-252C139.33,-252 99.33,-252 99.33,-252 93.33,-252 87.33,-246 87.33,-240 87.33,-240 87.33,-228 87.33,-228 87.33,-222 93.33,-216 99.33,-216 99.33,-216 139.33,-216 139.33,-216 145.33,-216 151.33,-222 151.33,-228 151.33,-228 151.33,-240 151.33,-240 151.33,-246 145.33,-252 139.33,-252"/>
<text text-anchor="middle" x="119.33" y="-231.5" font-family="sans" font-size="10.00">download</text>
</g>
<!-- 2&#45;&gt;1 -->
<g id="edge5" class="edge">
<title>2&#45;&gt;1</title>
<path fill="none" stroke="grey" stroke-width="2" d="M100.54,-215.7C91.15,-207.05 79.64,-196.45 69.41,-187.03"/>
<polygon fill="grey" stroke="grey" stroke-width="2" points="71.62,-184.3 61.9,-180.1 66.88,-189.45 71.62,-184.3"/>
</g>
<!-- 5 -->
<g id="node6" class="node">
<title>5</title>
<path fill="none" stroke="#78d856" stroke-width="2" stroke-dasharray="5,2" d="M134.33,-180C134.33,-180 104.33,-180 104.33,-180 98.33,-180 92.33,-174 92.33,-168 92.33,-168 92.33,-156 92.33,-156 92.33,-150 98.33,-144 104.33,-144 104.33,-144 134.33,-144 134.33,-144 140.33,-144 146.33,-150 146.33,-156 146.33,-156 146.33,-168 146.33,-168 146.33,-174 140.33,-180 134.33,-180"/>
<text text-anchor="middle" x="119.33" y="-159.5" font-family="sans" font-size="10.00">gtf</text>
</g>
<!-- 2&#45;&gt;5 -->
<g id="edge9" class="edge">
<title>2&#45;&gt;5</title>
<path fill="none" stroke="grey" stroke-width="2" d="M119.33,-215.7C119.33,-207.98 119.33,-198.71 119.33,-190.11"/>
<polygon fill="grey" stroke="grey" stroke-width="2" points="122.83,-190.1 119.33,-180.1 115.83,-190.1 122.83,-190.1"/>
</g>
<!-- 6 -->
<g id="node7" class="node">
<title>6</title>
<path fill="none" stroke="#d8a456" stroke-width="2" stroke-dasharray="5,2" d="M266.83,-108C266.83,-108 183.83,-108 183.83,-108 177.83,-108 171.83,-102 171.83,-96 171.83,-96 171.83,-84 171.83,-84 171.83,-78 177.83,-72 183.83,-72 183.83,-72 266.83,-72 266.83,-72 272.83,-72 278.83,-78 278.83,-84 278.83,-84 278.83,-96 278.83,-96 278.83,-102 272.83,-108 266.83,-108"/>
<text text-anchor="middle" x="225.33" y="-87.5" font-family="sans" font-size="10.00">minimap_kasalath</text>
</g>
<!-- 2&#45;&gt;6 -->
<g id="edge10" class="edge">
<title>2&#45;&gt;6</title>
<path fill="none" stroke="grey" stroke-width="2" d="M132.11,-215.87C150.58,-191.14 184.84,-145.24 206.28,-116.51"/>
<polygon fill="grey" stroke="grey" stroke-width="2" points="209.32,-118.3 212.5,-108.19 203.71,-114.11 209.32,-118.3"/>
</g>
<!-- 3&#45;&gt;0 -->
<g id="edge2" class="edge">
<title>3&#45;&gt;0</title>
<path fill="none" stroke="grey" stroke-width="2" d="M49.97,-71.7C54.45,-63.64 59.89,-53.89 64.85,-44.98"/>
<polygon fill="grey" stroke="grey" stroke-width="2" points="67.99,-46.54 69.8,-36.1 61.87,-43.14 67.99,-46.54"/>
</g>
<!-- 4&#45;&gt;0 -->
<g id="edge3" class="edge">
<title>4&#45;&gt;0</title>
<path fill="none" stroke="grey" stroke-width="2" d="M109.44,-71.7C104.84,-63.64 99.27,-53.89 94.17,-44.98"/>
<polygon fill="grey" stroke="grey" stroke-width="2" points="97.1,-43.05 89.1,-36.1 91.02,-46.52 97.1,-43.05"/>
</g>
<!-- 5&#45;&gt;4 -->
<g id="edge8" class="edge">
<title>5&#45;&gt;4</title>
<path fill="none" stroke="grey" stroke-width="2" d="M119.33,-143.7C119.33,-135.98 119.33,-126.71 119.33,-118.11"/>
<polygon fill="grey" stroke="grey" stroke-width="2" points="122.83,-118.1 119.33,-108.1 115.83,-118.1 122.83,-118.1"/>
</g>
<!-- 6&#45;&gt;0 -->
<g id="edge4" class="edge">
<title>6&#45;&gt;0</title>
<path fill="none" stroke="grey" stroke-width="2" d="M189.61,-71.88C167.16,-61.11 138.27,-47.26 115.69,-36.43"/>
<polygon fill="grey" stroke="grey" stroke-width="2" points="116.97,-33.16 106.44,-32 113.94,-39.48 116.97,-33.16"/>
</g>
</g>
</svg>
