<?xml version="1.0" encoding="UTF-8" standalone="no"?>
<!DOCTYPE svg PUBLIC "-//W3C//DTD SVG 1.1//EN"
 "http://www.w3.org/Graphics/SVG/1.1/DTD/svg11.dtd">
<!-- Generated by graphviz version 2.43.0 (0)
 -->
<!-- Title: snakemake_dag Pages: 1 -->
<svg width="500pt" height="260pt"
 viewBox="0.00 0.00 500.00 260.00" xmlns="http://www.w3.org/2000/svg" xmlns:xlink="http://www.w3.org/1999/xlink">
<g id="graph0" class="graph" transform="scale(1 1) rotate(0) translate(4 256)">
<title>snakemake_dag</title>
<polygon fill="white" stroke="transparent" points="-4,4 -4,-256 496,-256 496,4 -4,4"/>
<!-- 0 -->
<g id="node1" class="node">
<title>0</title>
<path fill="none" stroke="#56d8a9" stroke-width="2" stroke-dasharray="5,2" d="M255,-36C255,-36 225,-36 225,-36 219,-36 213,-30 213,-24 213,-24 213,-12 213,-12 213,-6 219,0 225,0 225,0 255,0 255,0 261,0 267,-6 267,-12 267,-12 267,-24 267,-24 267,-30 261,-36 255,-36"/>
<text text-anchor="middle" x="240" y="-15.5" font-family="sans" font-size="10.00">all</text>
</g>
<!-- 1 -->
<g id="node2" class="node">
<title>1</title>
<path fill="none" stroke="#56a9d8" stroke-width="2" stroke-dasharray="5,2" d="M110,-108C110,-108 12,-108 12,-108 6,-108 0,-102 0,-96 0,-96 0,-84 0,-84 0,-78 6,-72 12,-72 12,-72 110,-72 110,-72 116,-72 122,-78 122,-84 122,-84 122,-96 122,-96 122,-102 116,-108 110,-108"/>
<text text-anchor="middle" x="61" y="-87.5" font-family="sans" font-size="10.00">download_annotation</text>
</g>
<!-- 1&#45;&gt;0 -->
<g id="edge1" class="edge">
<title>1&#45;&gt;0</title>
<path fill="none" stroke="grey" stroke-width="2" d="M104.79,-71.88C134.97,-60.07 174.64,-44.56 203.19,-33.4"/>
<polygon fill="grey" stroke="grey" stroke-width="2" points="204.75,-36.54 212.79,-29.64 202.2,-30.02 204.75,-36.54"/>
</g>
<!-- 2 -->
<g id="node3" class="node">
<title>2</title>
<path fill="none" stroke="#d88556" stroke-width="2" stroke-dasharray="5,2" d="M182,-108C182,-108 152,-108 152,-108 146,-108 140,-102 140,-96 140,-96 140,-84 140,-84 140,-78 146,-72 152,-72 152,-72 182,-72 182,-72 188,-72 194,-78 194,-84 194,-84 194,-96 194,-96 194,-102 188,-108 182,-108"/>
<text text-anchor="middle" x="167" y="-87.5" font-family="sans" font-size="10.00">bwa</text>
</g>
<!-- 2&#45;&gt;0 -->
<g id="edge2" class="edge">
<title>2&#45;&gt;0</title>
<path fill="none" stroke="grey" stroke-width="2" d="M185.04,-71.7C194.06,-63.05 205.12,-52.45 214.94,-43.03"/>
<polygon fill="grey" stroke="grey" stroke-width="2" points="217.37,-45.55 222.16,-36.1 212.52,-40.5 217.37,-45.55"/>
</g>
<!-- 3 -->
<g id="node4" class="node">
<title>3</title>
<path fill="none" stroke="#80d856" stroke-width="2" stroke-dasharray="5,2" d="M243,-180C243,-180 211,-180 211,-180 205,-180 199,-174 199,-168 199,-168 199,-156 199,-156 199,-150 205,-144 211,-144 211,-144 243,-144 243,-144 249,-144 255,-150 255,-156 255,-156 255,-168 255,-168 255,-174 249,-180 243,-180"/>
<text text-anchor="middle" x="227" y="-159.5" font-family="sans" font-size="10.00">genome</text>
</g>
<!-- 3&#45;&gt;2 -->
<g id="edge6" class="edge">
<title>3&#45;&gt;2</title>
<path fill="none" stroke="grey" stroke-width="2" d="M212.17,-143.7C204.98,-135.3 196.2,-125.07 188.31,-115.86"/>
<polygon fill="grey" stroke="grey" stroke-width="2" points="190.83,-113.42 181.66,-108.1 185.51,-117.97 190.83,-113.42"/>
</g>
<!-- 5 -->
<g id="node6" class="node">
<title>5</title>
<path fill="none" stroke="#d85656" stroke-width="2" stroke-dasharray="5,2" d="M342,-108C342,-108 298,-108 298,-108 292,-108 286,-102 286,-96 286,-96 286,-84 286,-84 286,-78 292,-72 298,-72 298,-72 342,-72 342,-72 348,-72 354,-78 354,-84 354,-84 354,-96 354,-96 354,-102 348,-108 342,-108"/>
<text text-anchor="middle" x="320" y="-87.5" font-family="sans" font-size="10.00">star_index</text>
</g>
<!-- 3&#45;&gt;5 -->
<g id="edge8" class="edge">
<title>3&#45;&gt;5</title>
<path fill="none" stroke="grey" stroke-width="2" d="M249.99,-143.7C261.81,-134.8 276.39,-123.82 289.18,-114.2"/>
<polygon fill="grey" stroke="grey" stroke-width="2" points="291.39,-116.91 297.28,-108.1 287.18,-111.32 291.39,-116.91"/>
</g>
<!-- 8 -->
<g id="node9" class="node">
<title>8</title>
<path fill="none" stroke="#56d882" stroke-width="2" stroke-dasharray="5,2" d="M256,-108C256,-108 224,-108 224,-108 218,-108 212,-102 212,-96 212,-96 212,-84 212,-84 212,-78 218,-72 224,-72 224,-72 256,-72 256,-72 262,-72 268,-78 268,-84 268,-84 268,-96 268,-96 268,-102 262,-108 256,-108"/>
<text text-anchor="middle" x="240" y="-87.5" font-family="sans" font-size="10.00">annovar</text>
</g>
<!-- 3&#45;&gt;8 -->
<g id="edge11" class="edge">
<title>3&#45;&gt;8</title>
<path fill="none" stroke="grey" stroke-width="2" d="M230.21,-143.7C231.65,-135.98 233.37,-126.71 234.96,-118.11"/>
<polygon fill="grey" stroke="grey" stroke-width="2" points="238.44,-118.58 236.82,-108.1 231.56,-117.3 238.44,-118.58"/>
</g>
<!-- 4 -->
<g id="node5" class="node">
<title>4</title>
<path fill="none" stroke="#d6d856" stroke-width="2" stroke-dasharray="5,2" d="M251.5,-252C251.5,-252 166.5,-252 166.5,-252 160.5,-252 154.5,-246 154.5,-240 154.5,-240 154.5,-228 154.5,-228 154.5,-222 160.5,-216 166.5,-216 166.5,-216 251.5,-216 251.5,-216 257.5,-216 263.5,-222 263.5,-228 263.5,-228 263.5,-240 263.5,-240 263.5,-246 257.5,-252 251.5,-252"/>
<text text-anchor="middle" x="209" y="-231.5" font-family="sans" font-size="10.00">download_genome</text>
</g>
<!-- 4&#45;&gt;3 -->
<g id="edge7" class="edge">
<title>4&#45;&gt;3</title>
<path fill="none" stroke="grey" stroke-width="2" d="M213.45,-215.7C215.45,-207.9 217.87,-198.51 220.1,-189.83"/>
<polygon fill="grey" stroke="grey" stroke-width="2" points="223.5,-190.66 222.6,-180.1 216.72,-188.92 223.5,-190.66"/>
</g>
<!-- 5&#45;&gt;0 -->
<g id="edge3" class="edge">
<title>5&#45;&gt;0</title>
<path fill="none" stroke="grey" stroke-width="2" d="M300.22,-71.7C290.25,-62.97 277.99,-52.24 267.14,-42.75"/>
<polygon fill="grey" stroke="grey" stroke-width="2" points="269.38,-40.06 259.55,-36.1 264.77,-45.32 269.38,-40.06"/>
</g>
<!-- 6 -->
<g id="node7" class="node">
<title>6</title>
<path fill="none" stroke="#59d856" stroke-width="2" stroke-dasharray="5,2" d="M332,-180C332,-180 294,-180 294,-180 288,-180 282,-174 282,-168 282,-168 282,-156 282,-156 282,-150 288,-144 294,-144 294,-144 332,-144 332,-144 338,-144 344,-150 344,-156 344,-156 344,-168 344,-168 344,-174 338,-180 332,-180"/>
<text text-anchor="middle" x="313" y="-159.5" font-family="sans" font-size="10.00">make_gtf</text>
</g>
<!-- 6&#45;&gt;5 -->
<g id="edge9" class="edge">
<title>6&#45;&gt;5</title>
<path fill="none" stroke="grey" stroke-width="2" d="M314.73,-143.7C315.5,-135.98 316.43,-126.71 317.29,-118.11"/>
<polygon fill="grey" stroke="grey" stroke-width="2" points="320.78,-118.4 318.29,-108.1 313.81,-117.71 320.78,-118.4"/>
</g>
<!-- 6&#45;&gt;8 -->
<g id="edge12" class="edge">
<title>6&#45;&gt;8</title>
<path fill="none" stroke="grey" stroke-width="2" d="M294.96,-143.7C285.94,-135.05 274.88,-124.45 265.06,-115.03"/>
<polygon fill="grey" stroke="grey" stroke-width="2" points="267.48,-112.5 257.84,-108.1 262.63,-117.55 267.48,-112.5"/>
</g>
<!-- 7 -->
<g id="node8" class="node">
<title>7</title>
<path fill="none" stroke="#56d8d8" stroke-width="2" stroke-dasharray="5,2" d="M352,-252C352,-252 294,-252 294,-252 288,-252 282,-246 282,-240 282,-240 282,-228 282,-228 282,-222 288,-216 294,-216 294,-216 352,-216 352,-216 358,-216 364,-222 364,-228 364,-228 364,-240 364,-240 364,-246 358,-252 352,-252"/>
<text text-anchor="middle" x="323" y="-231.5" font-family="sans" font-size="10.00">download_gff</text>
</g>
<!-- 7&#45;&gt;6 -->
<g id="edge10" class="edge">
<title>7&#45;&gt;6</title>
<path fill="none" stroke="grey" stroke-width="2" d="M320.53,-215.7C319.43,-207.98 318.1,-198.71 316.87,-190.11"/>
<polygon fill="grey" stroke="grey" stroke-width="2" points="320.32,-189.51 315.44,-180.1 313.39,-190.5 320.32,-189.51"/>
</g>
<!-- 8&#45;&gt;0 -->
<g id="edge4" class="edge">
<title>8&#45;&gt;0</title>
<path fill="none" stroke="grey" stroke-width="2" d="M240,-71.7C240,-63.98 240,-54.71 240,-46.11"/>
<polygon fill="grey" stroke="grey" stroke-width="2" points="243.5,-46.1 240,-36.1 236.5,-46.1 243.5,-46.1"/>
</g>
<!-- 9 -->
<g id="node10" class="node">
<title>9</title>
<path fill="none" stroke="#d8ac56" stroke-width="2" stroke-dasharray="5,2" d="M447.5,-108C447.5,-108 394.5,-108 394.5,-108 388.5,-108 382.5,-102 382.5,-96 382.5,-96 382.5,-84 382.5,-84 382.5,-78 388.5,-72 394.5,-72 394.5,-72 447.5,-72 447.5,-72 453.5,-72 459.5,-78 459.5,-84 459.5,-84 459.5,-96 459.5,-96 459.5,-102 453.5,-108 447.5,-108"/>
<text text-anchor="middle" x="421" y="-87.5" font-family="sans" font-size="10.00">id_converter</text>
</g>
<!-- 9&#45;&gt;0 -->
<g id="edge5" class="edge">
<title>9&#45;&gt;0</title>
<path fill="none" stroke="grey" stroke-width="2" d="M382.17,-73.98C350.86,-61.88 307.15,-44.97 276.49,-33.11"/>
<polygon fill="grey" stroke="grey" stroke-width="2" points="277.61,-29.79 267.02,-29.45 275.09,-36.32 277.61,-29.79"/>
</g>
<!-- 10 -->
<g id="node11" class="node">
<title>10</title>
<path fill="none" stroke="#5682d8" stroke-width="2" stroke-dasharray="5,2" d="M480,-180C480,-180 374,-180 374,-180 368,-180 362,-174 362,-168 362,-168 362,-156 362,-156 362,-150 368,-144 374,-144 374,-144 480,-144 480,-144 486,-144 492,-150 492,-156 492,-156 492,-168 492,-168 492,-174 486,-180 480,-180"/>
<text text-anchor="middle" x="427" y="-159.5" font-family="sans" font-size="10.00">download_id_converter</text>
</g>
<!-- 10&#45;&gt;9 -->
<g id="edge13" class="edge">
<title>10&#45;&gt;9</title>
<path fill="none" stroke="grey" stroke-width="2" d="M425.52,-143.7C424.86,-135.98 424.06,-126.71 423.32,-118.11"/>
<polygon fill="grey" stroke="grey" stroke-width="2" points="426.81,-117.77 422.47,-108.1 419.83,-118.37 426.81,-117.77"/>
</g>
</g>
</svg>
