<?xml version="1.0" encoding="UTF-8" standalone="no"?>
<!DOCTYPE svg PUBLIC "-//W3C//DTD SVG 1.1//EN"
 "http://www.w3.org/Graphics/SVG/1.1/DTD/svg11.dtd">
<!-- Generated by graphviz version 2.43.0 (0)
 -->
<!-- Title: snakemake_dag Pages: 1 -->
<svg width="446pt" height="260pt"
 viewBox="0.00 0.00 446.00 260.00" xmlns="http://www.w3.org/2000/svg" xmlns:xlink="http://www.w3.org/1999/xlink">
<g id="graph0" class="graph" transform="scale(1 1) rotate(0) translate(4 256)">
<title>snakemake_dag</title>
<polygon fill="white" stroke="transparent" points="-4,4 -4,-256 442,-256 442,4 -4,4"/>
<!-- 0 -->
<g id="node1" class="node">
<title>0</title>
<path fill="none" stroke="#d8a456" stroke-width="2" stroke-dasharray="5,2" d="M224,-36C224,-36 194,-36 194,-36 188,-36 182,-30 182,-24 182,-24 182,-12 182,-12 182,-6 188,0 194,0 194,0 224,0 224,0 230,0 236,-6 236,-12 236,-12 236,-24 236,-24 236,-30 230,-36 224,-36"/>
<text text-anchor="middle" x="209" y="-15.5" font-family="sans" font-size="10.00">all</text>
</g>
<!-- 1 -->
<g id="node2" class="node">
<title>1</title>
<path fill="none" stroke="#56c9d8" stroke-width="2" stroke-dasharray="5,2" d="M110,-108C110,-108 12,-108 12,-108 6,-108 0,-102 0,-96 0,-96 0,-84 0,-84 0,-78 6,-72 12,-72 12,-72 110,-72 110,-72 116,-72 122,-78 122,-84 122,-84 122,-96 122,-96 122,-102 116,-108 110,-108"/>
<text text-anchor="middle" x="61" y="-87.5" font-family="sans" font-size="10.00">download_annotation</text>
</g>
<!-- 1&#45;&gt;0 -->
<g id="edge1" class="edge">
<title>1&#45;&gt;0</title>
<path fill="none" stroke="grey" stroke-width="2" d="M97.2,-71.88C120.22,-60.99 149.9,-46.95 172.9,-36.07"/>
<polygon fill="grey" stroke="grey" stroke-width="2" points="174.44,-39.22 181.99,-31.78 171.45,-32.89 174.44,-39.22"/>
</g>
<!-- 2 -->
<g id="node3" class="node">
<title>2</title>
<path fill="none" stroke="#d85656" stroke-width="2" stroke-dasharray="5,2" d="M182,-108C182,-108 152,-108 152,-108 146,-108 140,-102 140,-96 140,-96 140,-84 140,-84 140,-78 146,-72 152,-72 152,-72 182,-72 182,-72 188,-72 194,-78 194,-84 194,-84 194,-96 194,-96 194,-102 188,-108 182,-108"/>
<text text-anchor="middle" x="167" y="-87.5" font-family="sans" font-size="10.00">bwa</text>
</g>
<!-- 2&#45;&gt;0 -->
<g id="edge2" class="edge">
<title>2&#45;&gt;0</title>
<path fill="none" stroke="grey" stroke-width="2" d="M177.38,-71.7C182.26,-63.56 188.19,-53.69 193.58,-44.7"/>
<polygon fill="grey" stroke="grey" stroke-width="2" points="196.59,-46.48 198.74,-36.1 190.59,-42.88 196.59,-46.48"/>
</g>
<!-- 3 -->
<g id="node4" class="node">
<title>3</title>
<path fill="none" stroke="#56d8a2" stroke-width="2" stroke-dasharray="5,2" d="M156,-180C156,-180 124,-180 124,-180 118,-180 112,-174 112,-168 112,-168 112,-156 112,-156 112,-150 118,-144 124,-144 124,-144 156,-144 156,-144 162,-144 168,-150 168,-156 168,-156 168,-168 168,-168 168,-174 162,-180 156,-180"/>
<text text-anchor="middle" x="140" y="-159.5" font-family="sans" font-size="10.00">genome</text>
</g>
<!-- 3&#45;&gt;2 -->
<g id="edge5" class="edge">
<title>3&#45;&gt;2</title>
<path fill="none" stroke="grey" stroke-width="2" d="M146.67,-143.7C149.71,-135.81 153.38,-126.3 156.76,-117.55"/>
<polygon fill="grey" stroke="grey" stroke-width="2" points="160.07,-118.69 160.4,-108.1 153.54,-116.17 160.07,-118.69"/>
</g>
<!-- 4 -->
<g id="node5" class="node">
<title>4</title>
<path fill="none" stroke="#c6d856" stroke-width="2" stroke-dasharray="5,2" d="M182.5,-252C182.5,-252 97.5,-252 97.5,-252 91.5,-252 85.5,-246 85.5,-240 85.5,-240 85.5,-228 85.5,-228 85.5,-222 91.5,-216 97.5,-216 97.5,-216 182.5,-216 182.5,-216 188.5,-216 194.5,-222 194.5,-228 194.5,-228 194.5,-240 194.5,-240 194.5,-246 188.5,-252 182.5,-252"/>
<text text-anchor="middle" x="140" y="-231.5" font-family="sans" font-size="10.00">download_genome</text>
</g>
<!-- 4&#45;&gt;3 -->
<g id="edge6" class="edge">
<title>4&#45;&gt;3</title>
<path fill="none" stroke="grey" stroke-width="2" d="M140,-215.7C140,-207.98 140,-198.71 140,-190.11"/>
<polygon fill="grey" stroke="grey" stroke-width="2" points="143.5,-190.1 140,-180.1 136.5,-190.1 143.5,-190.1"/>
</g>
<!-- 5 -->
<g id="node6" class="node">
<title>5</title>
<path fill="none" stroke="#56a2d8" stroke-width="2" stroke-dasharray="5,2" d="M277.5,-108C277.5,-108 224.5,-108 224.5,-108 218.5,-108 212.5,-102 212.5,-96 212.5,-96 212.5,-84 212.5,-84 212.5,-78 218.5,-72 224.5,-72 224.5,-72 277.5,-72 277.5,-72 283.5,-72 289.5,-78 289.5,-84 289.5,-84 289.5,-96 289.5,-96 289.5,-102 283.5,-108 277.5,-108"/>
<text text-anchor="middle" x="251" y="-87.5" font-family="sans" font-size="10.00">id_converter</text>
</g>
<!-- 5&#45;&gt;0 -->
<g id="edge3" class="edge">
<title>5&#45;&gt;0</title>
<path fill="none" stroke="grey" stroke-width="2" d="M240.62,-71.7C235.74,-63.56 229.81,-53.69 224.42,-44.7"/>
<polygon fill="grey" stroke="grey" stroke-width="2" points="227.41,-42.88 219.26,-36.1 221.41,-46.48 227.41,-42.88"/>
</g>
<!-- 6 -->
<g id="node7" class="node">
<title>6</title>
<path fill="none" stroke="#56d87b" stroke-width="2" stroke-dasharray="5,2" d="M304,-180C304,-180 198,-180 198,-180 192,-180 186,-174 186,-168 186,-168 186,-156 186,-156 186,-150 192,-144 198,-144 198,-144 304,-144 304,-144 310,-144 316,-150 316,-156 316,-156 316,-168 316,-168 316,-174 310,-180 304,-180"/>
<text text-anchor="middle" x="251" y="-159.5" font-family="sans" font-size="10.00">download_id_converter</text>
</g>
<!-- 6&#45;&gt;5 -->
<g id="edge7" class="edge">
<title>6&#45;&gt;5</title>
<path fill="none" stroke="grey" stroke-width="2" d="M251,-143.7C251,-135.98 251,-126.71 251,-118.11"/>
<polygon fill="grey" stroke="grey" stroke-width="2" points="254.5,-118.1 251,-108.1 247.5,-118.1 254.5,-118.1"/>
</g>
<!-- 7 -->
<g id="node8" class="node">
<title>7</title>
<path fill="none" stroke="#9fd856" stroke-width="2" stroke-dasharray="5,2" d="M413,-108C413,-108 333,-108 333,-108 327,-108 321,-102 321,-96 321,-96 321,-84 321,-84 321,-78 327,-72 333,-72 333,-72 413,-72 413,-72 419,-72 425,-78 425,-84 425,-84 425,-96 425,-96 425,-102 419,-108 413,-108"/>
<text text-anchor="middle" x="373" y="-87.5" font-family="sans" font-size="10.00">diamond_makedb</text>
</g>
<!-- 7&#45;&gt;0 -->
<g id="edge4" class="edge">
<title>7&#45;&gt;0</title>
<path fill="none" stroke="grey" stroke-width="2" d="M332.88,-71.88C306.31,-60.53 271.72,-45.77 245.84,-34.73"/>
<polygon fill="grey" stroke="grey" stroke-width="2" points="246.96,-31.4 236.39,-30.69 244.21,-37.84 246.96,-31.4"/>
</g>
<!-- 8 -->
<g id="node9" class="node">
<title>8</title>
<path fill="none" stroke="#d87d56" stroke-width="2" stroke-dasharray="5,2" d="M426,-180C426,-180 346,-180 346,-180 340,-180 334,-174 334,-168 334,-168 334,-156 334,-156 334,-150 340,-144 346,-144 346,-144 426,-144 426,-144 432,-144 438,-150 438,-156 438,-156 438,-168 438,-168 438,-174 432,-180 426,-180"/>
<text text-anchor="middle" x="386" y="-159.5" font-family="sans" font-size="10.00">download_protein</text>
</g>
<!-- 8&#45;&gt;7 -->
<g id="edge8" class="edge">
<title>8&#45;&gt;7</title>
<path fill="none" stroke="grey" stroke-width="2" d="M382.79,-143.7C381.35,-135.98 379.63,-126.71 378.04,-118.11"/>
<polygon fill="grey" stroke="grey" stroke-width="2" points="381.44,-117.3 376.18,-108.1 374.56,-118.58 381.44,-117.3"/>
</g>
</g>
</svg>
