<?xml version="1.0" encoding="UTF-8" standalone="no"?>
<!DOCTYPE svg PUBLIC "-//W3C//DTD SVG 1.1//EN"
 "http://www.w3.org/Graphics/SVG/1.1/DTD/svg11.dtd">
<!-- Generated by graphviz version 2.43.0 (0)
 -->
<!-- Title: snakemake_dag Pages: 1 -->
<svg width="287pt" height="260pt"
 viewBox="0.00 0.00 286.84 260.00" xmlns="http://www.w3.org/2000/svg" xmlns:xlink="http://www.w3.org/1999/xlink">
<g id="graph0" class="graph" transform="scale(1 1) rotate(0) translate(4 256)">
<title>snakemake_dag</title>
<polygon fill="white" stroke="transparent" points="-4,4 -4,-256 282.84,-256 282.84,4 -4,4"/>
<!-- 0 -->
<g id="node1" class="node">
<title>0</title>
<path fill="none" stroke="#d85656" stroke-width="2" d="M94.34,-36C94.34,-36 64.34,-36 64.34,-36 58.34,-36 52.34,-30 52.34,-24 52.34,-24 52.34,-12 52.34,-12 52.34,-6 58.34,0 64.34,0 64.34,0 94.34,0 94.34,0 100.34,0 106.34,-6 106.34,-12 106.34,-12 106.34,-24 106.34,-24 106.34,-30 100.34,-36 94.34,-36"/>
<text text-anchor="middle" x="79.34" y="-15.5" font-family="sans" font-size="10.00">all</text>
</g>
<!-- 1 -->
<g id="node2" class="node">
<title>1</title>
<path fill="none" stroke="#d8a456" stroke-width="2" stroke-dasharray="5,2" d="M57.34,-180C57.34,-180 25.34,-180 25.34,-180 19.34,-180 13.34,-174 13.34,-168 13.34,-168 13.34,-156 13.34,-156 13.34,-150 19.34,-144 25.34,-144 25.34,-144 57.34,-144 57.34,-144 63.34,-144 69.34,-150 69.34,-156 69.34,-156 69.34,-168 69.34,-168 69.34,-174 63.34,-180 57.34,-180"/>
<text text-anchor="middle" x="41.34" y="-159.5" font-family="sans" font-size="10.00">genome</text>
</g>
<!-- 1&#45;&gt;0 -->
<g id="edge1" class="edge">
<title>1&#45;&gt;0</title>
<path fill="none" stroke="grey" stroke-width="2" d="M25.27,-143.89C10.22,-125.68 -8.21,-96.22 4.34,-72 12.65,-55.94 28.33,-43.7 43.21,-35.06"/>
<polygon fill="grey" stroke="grey" stroke-width="2" points="45.17,-37.98 52.29,-30.14 41.83,-31.82 45.17,-37.98"/>
</g>
<!-- 3 -->
<g id="node4" class="node">
<title>3</title>
<path fill="none" stroke="#56d87b" stroke-width="2" stroke-dasharray="5,2" d="M55.34,-108C55.34,-108 25.34,-108 25.34,-108 19.34,-108 13.34,-102 13.34,-96 13.34,-96 13.34,-84 13.34,-84 13.34,-78 19.34,-72 25.34,-72 25.34,-72 55.34,-72 55.34,-72 61.34,-72 67.34,-78 67.34,-84 67.34,-84 67.34,-96 67.34,-96 67.34,-102 61.34,-108 55.34,-108"/>
<text text-anchor="middle" x="40.34" y="-87.5" font-family="sans" font-size="10.00">bwa</text>
</g>
<!-- 1&#45;&gt;3 -->
<g id="edge6" class="edge">
<title>1&#45;&gt;3</title>
<path fill="none" stroke="grey" stroke-width="2" d="M41.09,-143.7C40.98,-135.98 40.85,-126.71 40.72,-118.11"/>
<polygon fill="grey" stroke="grey" stroke-width="2" points="44.22,-118.05 40.58,-108.1 37.22,-118.15 44.22,-118.05"/>
</g>
<!-- 4 -->
<g id="node5" class="node">
<title>4</title>
<path fill="none" stroke="#78d856" stroke-width="2" d="M141.34,-108C141.34,-108 97.34,-108 97.34,-108 91.34,-108 85.34,-102 85.34,-96 85.34,-96 85.34,-84 85.34,-84 85.34,-78 91.34,-72 97.34,-72 97.34,-72 141.34,-72 141.34,-72 147.34,-72 153.34,-78 153.34,-84 153.34,-84 153.34,-96 153.34,-96 153.34,-102 147.34,-108 141.34,-108"/>
<text text-anchor="middle" x="119.34" y="-87.5" font-family="sans" font-size="10.00">star_index</text>
</g>
<!-- 1&#45;&gt;4 -->
<g id="edge7" class="edge">
<title>1&#45;&gt;4</title>
<path fill="none" stroke="grey" stroke-width="2" d="M60.62,-143.7C70.25,-135.05 82.06,-124.45 92.56,-115.03"/>
<polygon fill="grey" stroke="grey" stroke-width="2" points="95.17,-117.39 100.28,-108.1 90.5,-112.18 95.17,-117.39"/>
</g>
<!-- 2 -->
<g id="node3" class="node">
<title>2</title>
<path fill="none" stroke="#56a2d8" stroke-width="2" stroke-dasharray="5,2" d="M139.34,-252C139.34,-252 99.34,-252 99.34,-252 93.34,-252 87.34,-246 87.34,-240 87.34,-240 87.34,-228 87.34,-228 87.34,-222 93.34,-216 99.34,-216 99.34,-216 139.34,-216 139.34,-216 145.34,-216 151.34,-222 151.34,-228 151.34,-228 151.34,-240 151.34,-240 151.34,-246 145.34,-252 139.34,-252"/>
<text text-anchor="middle" x="119.34" y="-231.5" font-family="sans" font-size="10.00">download</text>
</g>
<!-- 2&#45;&gt;1 -->
<g id="edge5" class="edge">
<title>2&#45;&gt;1</title>
<path fill="none" stroke="grey" stroke-width="2" d="M100.05,-215.7C90.42,-207.05 78.61,-196.45 68.11,-187.03"/>
<polygon fill="grey" stroke="grey" stroke-width="2" points="70.17,-184.18 60.39,-180.1 65.5,-189.39 70.17,-184.18"/>
</g>
<!-- 5 -->
<g id="node6" class="node">
<title>5</title>
<path fill="none" stroke="#c6d856" stroke-width="2" stroke-dasharray="5,2" d="M138.34,-180C138.34,-180 100.34,-180 100.34,-180 94.34,-180 88.34,-174 88.34,-168 88.34,-168 88.34,-156 88.34,-156 88.34,-150 94.34,-144 100.34,-144 100.34,-144 138.34,-144 138.34,-144 144.34,-144 150.34,-150 150.34,-156 150.34,-156 150.34,-168 150.34,-168 150.34,-174 144.34,-180 138.34,-180"/>
<text text-anchor="middle" x="119.34" y="-159.5" font-family="sans" font-size="10.00">make_gtf</text>
</g>
<!-- 2&#45;&gt;5 -->
<g id="edge9" class="edge">
<title>2&#45;&gt;5</title>
<path fill="none" stroke="grey" stroke-width="2" d="M119.34,-215.7C119.34,-207.98 119.34,-198.71 119.34,-190.11"/>
<polygon fill="grey" stroke="grey" stroke-width="2" points="122.84,-190.1 119.34,-180.1 115.84,-190.1 122.84,-190.1"/>
</g>
<!-- 6 -->
<g id="node7" class="node">
<title>6</title>
<path fill="none" stroke="#56d8c9" stroke-width="2" stroke-dasharray="5,2" d="M266.84,-108C266.84,-108 183.84,-108 183.84,-108 177.84,-108 171.84,-102 171.84,-96 171.84,-96 171.84,-84 171.84,-84 171.84,-78 177.84,-72 183.84,-72 183.84,-72 266.84,-72 266.84,-72 272.84,-72 278.84,-78 278.84,-84 278.84,-84 278.84,-96 278.84,-96 278.84,-102 272.84,-108 266.84,-108"/>
<text text-anchor="middle" x="225.34" y="-87.5" font-family="sans" font-size="10.00">minimap_kasalath</text>
</g>
<!-- 2&#45;&gt;6 -->
<g id="edge10" class="edge">
<title>2&#45;&gt;6</title>
<path fill="none" stroke="grey" stroke-width="2" d="M132.34,-215.84C140.18,-205.48 150.36,-192 159.34,-180 175.38,-158.56 193.49,-134.11 206.68,-116.28"/>
<polygon fill="grey" stroke="grey" stroke-width="2" points="209.6,-118.22 212.73,-108.09 203.97,-114.06 209.6,-118.22"/>
</g>
<!-- 3&#45;&gt;0 -->
<g id="edge2" class="edge">
<title>3&#45;&gt;0</title>
<path fill="none" stroke="grey" stroke-width="2" d="M49.98,-71.7C54.46,-63.64 59.89,-53.89 64.86,-44.98"/>
<polygon fill="grey" stroke="grey" stroke-width="2" points="68,-46.54 69.81,-36.1 61.88,-43.14 68,-46.54"/>
</g>
<!-- 4&#45;&gt;0 -->
<g id="edge3" class="edge">
<title>4&#45;&gt;0</title>
<path fill="none" stroke="grey" stroke-width="2" d="M109.45,-71.7C104.85,-63.64 99.28,-53.89 94.18,-44.98"/>
<polygon fill="grey" stroke="grey" stroke-width="2" points="97.11,-43.05 89.11,-36.1 91.03,-46.52 97.11,-43.05"/>
</g>
<!-- 5&#45;&gt;4 -->
<g id="edge8" class="edge">
<title>5&#45;&gt;4</title>
<path fill="none" stroke="grey" stroke-width="2" d="M119.34,-143.7C119.34,-135.98 119.34,-126.71 119.34,-118.11"/>
<polygon fill="grey" stroke="grey" stroke-width="2" points="122.84,-118.1 119.34,-108.1 115.84,-118.1 122.84,-118.1"/>
</g>
<!-- 6&#45;&gt;0 -->
<g id="edge4" class="edge">
<title>6&#45;&gt;0</title>
<path fill="none" stroke="grey" stroke-width="2" d="M189.62,-71.88C167.16,-61.11 138.27,-47.26 115.7,-36.43"/>
<polygon fill="grey" stroke="grey" stroke-width="2" points="116.97,-33.16 106.44,-32 113.95,-39.48 116.97,-33.16"/>
</g>
</g>
</svg>
