<?xml version="1.0" encoding="UTF-8" standalone="no"?>
<!DOCTYPE svg PUBLIC "-//W3C//DTD SVG 1.1//EN"
 "http://www.w3.org/Graphics/SVG/1.1/DTD/svg11.dtd">
<!-- Generated by graphviz version 2.43.0 (0)
 -->
<!-- Title: snakemake_dag Pages: 1 -->
<svg width="178pt" height="188pt"
 viewBox="0.00 0.00 178.00 188.00" xmlns="http://www.w3.org/2000/svg" xmlns:xlink="http://www.w3.org/1999/xlink">
<g id="graph0" class="graph" transform="scale(1 1) rotate(0) translate(4 184)">
<title>snakemake_dag</title>
<polygon fill="white" stroke="transparent" points="-4,4 -4,-184 174,-184 174,4 -4,4"/>
<!-- 0 -->
<g id="node1" class="node">
<title>0</title>
<path fill="none" stroke="#56a9d8" stroke-width="2" stroke-dasharray="5,2" d="M99.5,-36C99.5,-36 69.5,-36 69.5,-36 63.5,-36 57.5,-30 57.5,-24 57.5,-24 57.5,-12 57.5,-12 57.5,-6 63.5,0 69.5,0 69.5,0 99.5,0 99.5,0 105.5,0 111.5,-6 111.5,-12 111.5,-12 111.5,-24 111.5,-24 111.5,-30 105.5,-36 99.5,-36"/>
<text text-anchor="middle" x="84.5" y="-15.5" font-family="sans" font-size="10.00">all</text>
</g>
<!-- 1 -->
<g id="node2" class="node">
<title>1</title>
<path fill="none" stroke="#d8ac56" stroke-width="2" stroke-dasharray="5,2" d="M71,-108C71,-108 12,-108 12,-108 6,-108 0,-102 0,-96 0,-96 0,-84 0,-84 0,-78 6,-72 12,-72 12,-72 71,-72 71,-72 77,-72 83,-78 83,-84 83,-84 83,-96 83,-96 83,-102 77,-108 71,-108"/>
<text text-anchor="middle" x="41.5" y="-93" font-family="sans" font-size="10.00">make_gtf</text>
<text text-anchor="middle" x="41.5" y="-82" font-family="sans" font-size="10.00">variety: ZH11</text>
</g>
<!-- 1&#45;&gt;0 -->
<g id="edge1" class="edge">
<title>1&#45;&gt;0</title>
<path fill="none" stroke="grey" stroke-width="2" d="M52.13,-71.7C57.13,-63.56 63.19,-53.69 68.71,-44.7"/>
<polygon fill="grey" stroke="grey" stroke-width="2" points="71.74,-46.46 73.99,-36.1 65.78,-42.79 71.74,-46.46"/>
</g>
<!-- 2 -->
<g id="node3" class="node">
<title>2</title>
<path fill="none" stroke="#afd856" stroke-width="2" stroke-dasharray="5,2" d="M143.5,-108C143.5,-108 113.5,-108 113.5,-108 107.5,-108 101.5,-102 101.5,-96 101.5,-96 101.5,-84 101.5,-84 101.5,-78 107.5,-72 113.5,-72 113.5,-72 143.5,-72 143.5,-72 149.5,-72 155.5,-78 155.5,-84 155.5,-84 155.5,-96 155.5,-96 155.5,-102 149.5,-108 143.5,-108"/>
<text text-anchor="middle" x="128.5" y="-87.5" font-family="sans" font-size="10.00">bwa</text>
</g>
<!-- 2&#45;&gt;0 -->
<g id="edge2" class="edge">
<title>2&#45;&gt;0</title>
<path fill="none" stroke="grey" stroke-width="2" d="M117.62,-71.7C112.51,-63.56 106.3,-53.69 100.66,-44.7"/>
<polygon fill="grey" stroke="grey" stroke-width="2" points="103.54,-42.71 95.25,-36.1 97.61,-46.43 103.54,-42.71"/>
</g>
<!-- 3 -->
<g id="node4" class="node">
<title>3</title>
<path fill="none" stroke="#d85656" stroke-width="2" stroke-dasharray="5,2" d="M158,-180C158,-180 99,-180 99,-180 93,-180 87,-174 87,-168 87,-168 87,-156 87,-156 87,-150 93,-144 99,-144 99,-144 158,-144 158,-144 164,-144 170,-150 170,-156 170,-156 170,-168 170,-168 170,-174 164,-180 158,-180"/>
<text text-anchor="middle" x="128.5" y="-165" font-family="sans" font-size="10.00">genome</text>
<text text-anchor="middle" x="128.5" y="-154" font-family="sans" font-size="10.00">variety: ZH11</text>
</g>
<!-- 3&#45;&gt;2 -->
<g id="edge3" class="edge">
<title>3&#45;&gt;2</title>
<path fill="none" stroke="grey" stroke-width="2" d="M128.5,-143.7C128.5,-135.98 128.5,-126.71 128.5,-118.11"/>
<polygon fill="grey" stroke="grey" stroke-width="2" points="132,-118.1 128.5,-108.1 125,-118.1 132,-118.1"/>
</g>
</g>
</svg>
