<?xml version="1.0" encoding="UTF-8" standalone="no"?>
<!DOCTYPE svg PUBLIC "-//W3C//DTD SVG 1.1//EN"
 "http://www.w3.org/Graphics/SVG/1.1/DTD/svg11.dtd">
<!-- Generated by graphviz version 2.43.0 (0)
 -->
<!-- Title: snakemake_dag Pages: 1 -->
<svg width="567pt" height="260pt"
 viewBox="0.00 0.00 567.00 260.00" xmlns="http://www.w3.org/2000/svg" xmlns:xlink="http://www.w3.org/1999/xlink">
<g id="graph0" class="graph" transform="scale(1 1) rotate(0) translate(4 256)">
<title>snakemake_dag</title>
<polygon fill="white" stroke="transparent" points="-4,4 -4,-256 563,-256 563,4 -4,4"/>
<!-- 0 -->
<g id="node1" class="node">
<title>0</title>
<path fill="none" stroke="#c6d856" stroke-width="2" stroke-dasharray="5,2" d="M277.5,-36C277.5,-36 247.5,-36 247.5,-36 241.5,-36 235.5,-30 235.5,-24 235.5,-24 235.5,-12 235.5,-12 235.5,-6 241.5,0 247.5,0 247.5,0 277.5,0 277.5,0 283.5,0 289.5,-6 289.5,-12 289.5,-12 289.5,-24 289.5,-24 289.5,-30 283.5,-36 277.5,-36"/>
<text text-anchor="middle" x="262.5" y="-15.5" font-family="sans" font-size="10.00">all</text>
</g>
<!-- 1 -->
<g id="node2" class="node">
<title>1</title>
<path fill="none" stroke="#56d87b" stroke-width="2" stroke-dasharray="5,2" d="M71,-108C71,-108 12,-108 12,-108 6,-108 0,-102 0,-96 0,-96 0,-84 0,-84 0,-78 6,-72 12,-72 12,-72 71,-72 71,-72 77,-72 83,-78 83,-84 83,-84 83,-96 83,-96 83,-102 77,-108 71,-108"/>
<text text-anchor="middle" x="41.5" y="-93" font-family="sans" font-size="10.00">make_gtf</text>
<text text-anchor="middle" x="41.5" y="-82" font-family="sans" font-size="10.00">variety: ZH11</text>
</g>
<!-- 1&#45;&gt;0 -->
<g id="edge1" class="edge">
<title>1&#45;&gt;0</title>
<path fill="none" stroke="grey" stroke-width="2" d="M83.23,-75.02C86.36,-73.99 89.48,-72.97 92.5,-72 138.29,-57.23 191.24,-40.83 225.72,-30.24"/>
<polygon fill="grey" stroke="grey" stroke-width="2" points="226.83,-33.56 235.36,-27.28 224.77,-26.87 226.83,-33.56"/>
</g>
<!-- 2 -->
<g id="node3" class="node">
<title>2</title>
<path fill="none" stroke="#56d87b" stroke-width="2" stroke-dasharray="5,2" d="M169.5,-108C169.5,-108 113.5,-108 113.5,-108 107.5,-108 101.5,-102 101.5,-96 101.5,-96 101.5,-84 101.5,-84 101.5,-78 107.5,-72 113.5,-72 113.5,-72 169.5,-72 169.5,-72 175.5,-72 181.5,-78 181.5,-84 181.5,-84 181.5,-96 181.5,-96 181.5,-102 175.5,-108 169.5,-108"/>
<text text-anchor="middle" x="141.5" y="-93" font-family="sans" font-size="10.00">make_gtf</text>
<text text-anchor="middle" x="141.5" y="-82" font-family="sans" font-size="10.00">variety: 9311</text>
</g>
<!-- 2&#45;&gt;0 -->
<g id="edge2" class="edge">
<title>2&#45;&gt;0</title>
<path fill="none" stroke="grey" stroke-width="2" d="M171.1,-71.88C187.78,-62.23 208.75,-50.1 226.39,-39.89"/>
<polygon fill="grey" stroke="grey" stroke-width="2" points="228.37,-42.79 235.27,-34.75 224.87,-36.73 228.37,-42.79"/>
</g>
<!-- 3 -->
<g id="node4" class="node">
<title>3</title>
<path fill="none" stroke="#d85656" stroke-width="2" stroke-dasharray="5,2" d="M241.5,-108C241.5,-108 211.5,-108 211.5,-108 205.5,-108 199.5,-102 199.5,-96 199.5,-96 199.5,-84 199.5,-84 199.5,-78 205.5,-72 211.5,-72 211.5,-72 241.5,-72 241.5,-72 247.5,-72 253.5,-78 253.5,-84 253.5,-84 253.5,-96 253.5,-96 253.5,-102 247.5,-108 241.5,-108"/>
<text text-anchor="middle" x="226.5" y="-87.5" font-family="sans" font-size="10.00">bwa</text>
</g>
<!-- 3&#45;&gt;0 -->
<g id="edge3" class="edge">
<title>3&#45;&gt;0</title>
<path fill="none" stroke="grey" stroke-width="2" d="M235.4,-71.7C239.5,-63.73 244.45,-54.1 248.99,-45.26"/>
<polygon fill="grey" stroke="grey" stroke-width="2" points="252.24,-46.6 253.7,-36.1 246.02,-43.4 252.24,-46.6"/>
</g>
<!-- 4 -->
<g id="node5" class="node">
<title>4</title>
<path fill="none" stroke="#56a2d8" stroke-width="2" stroke-dasharray="5,2" d="M222,-180C222,-180 163,-180 163,-180 157,-180 151,-174 151,-168 151,-168 151,-156 151,-156 151,-150 157,-144 163,-144 163,-144 222,-144 222,-144 228,-144 234,-150 234,-156 234,-156 234,-168 234,-168 234,-174 228,-180 222,-180"/>
<text text-anchor="middle" x="192.5" y="-165" font-family="sans" font-size="10.00">genome</text>
<text text-anchor="middle" x="192.5" y="-154" font-family="sans" font-size="10.00">variety: ZH11</text>
</g>
<!-- 4&#45;&gt;3 -->
<g id="edge7" class="edge">
<title>4&#45;&gt;3</title>
<path fill="none" stroke="grey" stroke-width="2" d="M200.9,-143.7C204.77,-135.73 209.45,-126.1 213.74,-117.26"/>
<polygon fill="grey" stroke="grey" stroke-width="2" points="216.97,-118.63 218.19,-108.1 210.67,-115.57 216.97,-118.63"/>
</g>
<!-- 5 -->
<g id="node6" class="node">
<title>5</title>
<path fill="none" stroke="#d85656" stroke-width="2" stroke-dasharray="5,2" d="M313.5,-108C313.5,-108 283.5,-108 283.5,-108 277.5,-108 271.5,-102 271.5,-96 271.5,-96 271.5,-84 271.5,-84 271.5,-78 277.5,-72 283.5,-72 283.5,-72 313.5,-72 313.5,-72 319.5,-72 325.5,-78 325.5,-84 325.5,-84 325.5,-96 325.5,-96 325.5,-102 319.5,-108 313.5,-108"/>
<text text-anchor="middle" x="298.5" y="-87.5" font-family="sans" font-size="10.00">bwa</text>
</g>
<!-- 5&#45;&gt;0 -->
<g id="edge4" class="edge">
<title>5&#45;&gt;0</title>
<path fill="none" stroke="grey" stroke-width="2" d="M289.6,-71.7C285.5,-63.73 280.55,-54.1 276.01,-45.26"/>
<polygon fill="grey" stroke="grey" stroke-width="2" points="278.98,-43.4 271.3,-36.1 272.76,-46.6 278.98,-43.4"/>
</g>
<!-- 6 -->
<g id="node7" class="node">
<title>6</title>
<path fill="none" stroke="#56a2d8" stroke-width="2" stroke-dasharray="5,2" d="M320.5,-180C320.5,-180 264.5,-180 264.5,-180 258.5,-180 252.5,-174 252.5,-168 252.5,-168 252.5,-156 252.5,-156 252.5,-150 258.5,-144 264.5,-144 264.5,-144 320.5,-144 320.5,-144 326.5,-144 332.5,-150 332.5,-156 332.5,-156 332.5,-168 332.5,-168 332.5,-174 326.5,-180 320.5,-180"/>
<text text-anchor="middle" x="292.5" y="-165" font-family="sans" font-size="10.00">genome</text>
<text text-anchor="middle" x="292.5" y="-154" font-family="sans" font-size="10.00">variety: 9311</text>
</g>
<!-- 6&#45;&gt;5 -->
<g id="edge8" class="edge">
<title>6&#45;&gt;5</title>
<path fill="none" stroke="grey" stroke-width="2" d="M293.98,-143.7C294.64,-135.98 295.44,-126.71 296.18,-118.11"/>
<polygon fill="grey" stroke="grey" stroke-width="2" points="299.67,-118.37 297.03,-108.1 292.69,-117.77 299.67,-118.37"/>
</g>
<!-- 7 -->
<g id="node8" class="node">
<title>7</title>
<path fill="none" stroke="#56d8c9" stroke-width="2" stroke-dasharray="5,2" d="M420,-108C420,-108 367,-108 367,-108 361,-108 355,-102 355,-96 355,-96 355,-84 355,-84 355,-78 361,-72 367,-72 367,-72 420,-72 420,-72 426,-72 432,-78 432,-84 432,-84 432,-96 432,-96 432,-102 426,-108 420,-108"/>
<text text-anchor="middle" x="393.5" y="-87.5" font-family="sans" font-size="10.00">id_converter</text>
</g>
<!-- 7&#45;&gt;0 -->
<g id="edge5" class="edge">
<title>7&#45;&gt;0</title>
<path fill="none" stroke="grey" stroke-width="2" d="M361.45,-71.88C342.49,-61.74 318.41,-48.88 298.76,-38.37"/>
<polygon fill="grey" stroke="grey" stroke-width="2" points="300.26,-35.21 289.79,-33.58 296.96,-41.38 300.26,-35.21"/>
</g>
<!-- 8 -->
<g id="node9" class="node">
<title>8</title>
<path fill="none" stroke="#78d856" stroke-width="2" stroke-dasharray="5,2" d="M434,-180C434,-180 363,-180 363,-180 357,-180 351,-174 351,-168 351,-168 351,-156 351,-156 351,-150 357,-144 363,-144 363,-144 434,-144 434,-144 440,-144 446,-150 446,-156 446,-156 446,-168 446,-168 446,-174 440,-180 434,-180"/>
<text text-anchor="middle" x="398.5" y="-159.5" font-family="sans" font-size="10.00">diamond_blastx</text>
</g>
<!-- 8&#45;&gt;7 -->
<g id="edge9" class="edge">
<title>8&#45;&gt;7</title>
<path fill="none" stroke="grey" stroke-width="2" d="M397.26,-143.7C396.71,-135.98 396.05,-126.71 395.44,-118.11"/>
<polygon fill="grey" stroke="grey" stroke-width="2" points="398.93,-117.83 394.72,-108.1 391.94,-118.33 398.93,-117.83"/>
</g>
<!-- 9 -->
<g id="node10" class="node">
<title>9</title>
<path fill="none" stroke="#d8a456" stroke-width="2" stroke-dasharray="5,2" d="M428,-252C428,-252 369,-252 369,-252 363,-252 357,-246 357,-240 357,-240 357,-228 357,-228 357,-222 363,-216 369,-216 369,-216 428,-216 428,-216 434,-216 440,-222 440,-228 440,-228 440,-240 440,-240 440,-246 434,-252 428,-252"/>
<text text-anchor="middle" x="398.5" y="-237" font-family="sans" font-size="10.00">longest_cds</text>
<text text-anchor="middle" x="398.5" y="-226" font-family="sans" font-size="10.00">variety: ZH11</text>
</g>
<!-- 9&#45;&gt;8 -->
<g id="edge10" class="edge">
<title>9&#45;&gt;8</title>
<path fill="none" stroke="grey" stroke-width="2" d="M398.5,-215.7C398.5,-207.98 398.5,-198.71 398.5,-190.11"/>
<polygon fill="grey" stroke="grey" stroke-width="2" points="402,-190.1 398.5,-180.1 395,-190.1 402,-190.1"/>
</g>
<!-- 10 -->
<g id="node11" class="node">
<title>10</title>
<path fill="none" stroke="#56d8c9" stroke-width="2" stroke-dasharray="5,2" d="M527,-108C527,-108 474,-108 474,-108 468,-108 462,-102 462,-96 462,-96 462,-84 462,-84 462,-78 468,-72 474,-72 474,-72 527,-72 527,-72 533,-72 539,-78 539,-84 539,-84 539,-96 539,-96 539,-102 533,-108 527,-108"/>
<text text-anchor="middle" x="500.5" y="-87.5" font-family="sans" font-size="10.00">id_converter</text>
</g>
<!-- 10&#45;&gt;0 -->
<g id="edge6" class="edge">
<title>10&#45;&gt;0</title>
<path fill="none" stroke="grey" stroke-width="2" d="M462,-77.68C417.2,-64.5 343.76,-42.9 299.58,-29.91"/>
<polygon fill="grey" stroke="grey" stroke-width="2" points="300.4,-26.5 289.82,-27.04 298.43,-33.22 300.4,-26.5"/>
</g>
<!-- 11 -->
<g id="node12" class="node">
<title>11</title>
<path fill="none" stroke="#78d856" stroke-width="2" stroke-dasharray="5,2" d="M547,-180C547,-180 476,-180 476,-180 470,-180 464,-174 464,-168 464,-168 464,-156 464,-156 464,-150 470,-144 476,-144 476,-144 547,-144 547,-144 553,-144 559,-150 559,-156 559,-156 559,-168 559,-168 559,-174 553,-180 547,-180"/>
<text text-anchor="middle" x="511.5" y="-159.5" font-family="sans" font-size="10.00">diamond_blastx</text>
</g>
<!-- 11&#45;&gt;10 -->
<g id="edge11" class="edge">
<title>11&#45;&gt;10</title>
<path fill="none" stroke="grey" stroke-width="2" d="M508.78,-143.7C507.57,-135.98 506.11,-126.71 504.76,-118.11"/>
<polygon fill="grey" stroke="grey" stroke-width="2" points="508.2,-117.44 503.19,-108.1 501.28,-118.53 508.2,-117.44"/>
</g>
<!-- 12 -->
<g id="node13" class="node">
<title>12</title>
<path fill="none" stroke="#d8a456" stroke-width="2" stroke-dasharray="5,2" d="M539.5,-252C539.5,-252 483.5,-252 483.5,-252 477.5,-252 471.5,-246 471.5,-240 471.5,-240 471.5,-228 471.5,-228 471.5,-222 477.5,-216 483.5,-216 483.5,-216 539.5,-216 539.5,-216 545.5,-216 551.5,-222 551.5,-228 551.5,-228 551.5,-240 551.5,-240 551.5,-246 545.5,-252 539.5,-252"/>
<text text-anchor="middle" x="511.5" y="-237" font-family="sans" font-size="10.00">longest_cds</text>
<text text-anchor="middle" x="511.5" y="-226" font-family="sans" font-size="10.00">variety: 9311</text>
</g>
<!-- 12&#45;&gt;11 -->
<g id="edge12" class="edge">
<title>12&#45;&gt;11</title>
<path fill="none" stroke="grey" stroke-width="2" d="M511.5,-215.7C511.5,-207.98 511.5,-198.71 511.5,-190.11"/>
<polygon fill="grey" stroke="grey" stroke-width="2" points="515,-190.1 511.5,-180.1 508,-190.1 515,-190.1"/>
</g>
</g>
</svg>
