<?xml version="1.0" encoding="UTF-8" standalone="no"?>
<!DOCTYPE svg PUBLIC "-//W3C//DTD SVG 1.1//EN"
 "http://www.w3.org/Graphics/SVG/1.1/DTD/svg11.dtd">
<!-- Generated by graphviz version 2.43.0 (0)
 -->
<!-- Title: snakemake_dag Pages: 1 -->
<svg width="336pt" height="260pt"
 viewBox="0.00 0.00 336.00 260.00" xmlns="http://www.w3.org/2000/svg" xmlns:xlink="http://www.w3.org/1999/xlink">
<g id="graph0" class="graph" transform="scale(1 1) rotate(0) translate(4 256)">
<title>snakemake_dag</title>
<polygon fill="white" stroke="transparent" points="-4,4 -4,-256 332,-256 332,4 -4,4"/>
<!-- 0 -->
<g id="node1" class="node">
<title>0</title>
<path fill="none" stroke="#afd856" stroke-width="2" stroke-dasharray="5,2" d="M165.5,-36C165.5,-36 135.5,-36 135.5,-36 129.5,-36 123.5,-30 123.5,-24 123.5,-24 123.5,-12 123.5,-12 123.5,-6 129.5,0 135.5,0 135.5,0 165.5,0 165.5,0 171.5,0 177.5,-6 177.5,-12 177.5,-12 177.5,-24 177.5,-24 177.5,-30 171.5,-36 165.5,-36"/>
<text text-anchor="middle" x="150.5" y="-15.5" font-family="sans" font-size="10.00">all</text>
</g>
<!-- 1 -->
<g id="node2" class="node">
<title>1</title>
<path fill="none" stroke="#d85656" stroke-width="2" stroke-dasharray="5,2" d="M70.5,-180C70.5,-180 38.5,-180 38.5,-180 32.5,-180 26.5,-174 26.5,-168 26.5,-168 26.5,-156 26.5,-156 26.5,-150 32.5,-144 38.5,-144 38.5,-144 70.5,-144 70.5,-144 76.5,-144 82.5,-150 82.5,-156 82.5,-156 82.5,-168 82.5,-168 82.5,-174 76.5,-180 70.5,-180"/>
<text text-anchor="middle" x="54.5" y="-159.5" font-family="sans" font-size="10.00">genome</text>
</g>
<!-- 1&#45;&gt;0 -->
<g id="edge1" class="edge">
<title>1&#45;&gt;0</title>
<path fill="none" stroke="grey" stroke-width="2" d="M50.94,-143.86C47.96,-124.82 46.08,-93.9 59.5,-72 71.65,-52.17 94.19,-38.96 113.8,-30.69"/>
<polygon fill="grey" stroke="grey" stroke-width="2" points="115.1,-33.94 123.13,-27.02 112.54,-27.43 115.1,-33.94"/>
</g>
<!-- 3 -->
<g id="node4" class="node">
<title>3</title>
<path fill="none" stroke="#d88d56" stroke-width="2" stroke-dasharray="5,2" d="M110.5,-108C110.5,-108 80.5,-108 80.5,-108 74.5,-108 68.5,-102 68.5,-96 68.5,-96 68.5,-84 68.5,-84 68.5,-78 74.5,-72 80.5,-72 80.5,-72 110.5,-72 110.5,-72 116.5,-72 122.5,-78 122.5,-84 122.5,-84 122.5,-96 122.5,-96 122.5,-102 116.5,-108 110.5,-108"/>
<text text-anchor="middle" x="95.5" y="-87.5" font-family="sans" font-size="10.00">bwa</text>
</g>
<!-- 1&#45;&gt;3 -->
<g id="edge7" class="edge">
<title>1&#45;&gt;3</title>
<path fill="none" stroke="grey" stroke-width="2" d="M64.63,-143.7C69.35,-135.64 75.06,-125.89 80.28,-116.98"/>
<polygon fill="grey" stroke="grey" stroke-width="2" points="83.45,-118.5 85.48,-108.1 77.41,-114.96 83.45,-118.5"/>
</g>
<!-- 2 -->
<g id="node3" class="node">
<title>2</title>
<path fill="none" stroke="#d8cb56" stroke-width="2" stroke-dasharray="5,2" d="M97,-252C97,-252 12,-252 12,-252 6,-252 0,-246 0,-240 0,-240 0,-228 0,-228 0,-222 6,-216 12,-216 12,-216 97,-216 97,-216 103,-216 109,-222 109,-228 109,-228 109,-240 109,-240 109,-246 103,-252 97,-252"/>
<text text-anchor="middle" x="54.5" y="-231.5" font-family="sans" font-size="10.00">download_genome</text>
</g>
<!-- 2&#45;&gt;1 -->
<g id="edge6" class="edge">
<title>2&#45;&gt;1</title>
<path fill="none" stroke="grey" stroke-width="2" d="M54.5,-215.7C54.5,-207.98 54.5,-198.71 54.5,-190.11"/>
<polygon fill="grey" stroke="grey" stroke-width="2" points="58,-190.1 54.5,-180.1 51,-190.1 58,-190.1"/>
</g>
<!-- 3&#45;&gt;0 -->
<g id="edge2" class="edge">
<title>3&#45;&gt;0</title>
<path fill="none" stroke="grey" stroke-width="2" d="M109.1,-71.7C115.62,-63.39 123.57,-53.28 130.75,-44.14"/>
<polygon fill="grey" stroke="grey" stroke-width="2" points="133.63,-46.13 137.06,-36.1 128.13,-41.81 133.63,-46.13"/>
</g>
<!-- 4 -->
<g id="node5" class="node">
<title>4</title>
<path fill="none" stroke="#56d8a9" stroke-width="2" stroke-dasharray="5,2" d="M316,-180C316,-180 245,-180 245,-180 239,-180 233,-174 233,-168 233,-168 233,-156 233,-156 233,-150 239,-144 245,-144 245,-144 316,-144 316,-144 322,-144 328,-150 328,-156 328,-156 328,-168 328,-168 328,-174 322,-180 316,-180"/>
<text text-anchor="middle" x="280.5" y="-159.5" font-family="sans" font-size="10.00">diamond_blastx</text>
</g>
<!-- 4&#45;&gt;0 -->
<g id="edge3" class="edge">
<title>4&#45;&gt;0</title>
<path fill="none" stroke="grey" stroke-width="2" d="M282.09,-143.75C282.94,-124.33 281.4,-92.78 265.5,-72 246.63,-47.34 213.58,-33.75 187.73,-26.53"/>
<polygon fill="grey" stroke="grey" stroke-width="2" points="188.43,-23.1 177.87,-23.98 186.68,-29.88 188.43,-23.1"/>
</g>
<!-- 8 -->
<g id="node9" class="node">
<title>8</title>
<path fill="none" stroke="#56c9d8" stroke-width="2" stroke-dasharray="5,2" d="M244,-108C244,-108 191,-108 191,-108 185,-108 179,-102 179,-96 179,-96 179,-84 179,-84 179,-78 185,-72 191,-72 191,-72 244,-72 244,-72 250,-72 256,-78 256,-84 256,-84 256,-96 256,-96 256,-102 250,-108 244,-108"/>
<text text-anchor="middle" x="217.5" y="-87.5" font-family="sans" font-size="10.00">id_converter</text>
</g>
<!-- 4&#45;&gt;8 -->
<g id="edge10" class="edge">
<title>4&#45;&gt;8</title>
<path fill="none" stroke="grey" stroke-width="2" d="M264.93,-143.7C257.3,-135.22 247.98,-124.86 239.62,-115.58"/>
<polygon fill="grey" stroke="grey" stroke-width="2" points="242.19,-113.2 232.89,-108.1 236.98,-117.88 242.19,-113.2"/>
</g>
<!-- 5 -->
<g id="node6" class="node">
<title>5</title>
<path fill="none" stroke="#5692d8" stroke-width="2" stroke-dasharray="5,2" d="M311.5,-252C311.5,-252 249.5,-252 249.5,-252 243.5,-252 237.5,-246 237.5,-240 237.5,-240 237.5,-228 237.5,-228 237.5,-222 243.5,-216 249.5,-216 249.5,-216 311.5,-216 311.5,-216 317.5,-216 323.5,-222 323.5,-228 323.5,-228 323.5,-240 323.5,-240 323.5,-246 317.5,-252 311.5,-252"/>
<text text-anchor="middle" x="280.5" y="-231.5" font-family="sans" font-size="10.00">download_cds</text>
</g>
<!-- 5&#45;&gt;4 -->
<g id="edge8" class="edge">
<title>5&#45;&gt;4</title>
<path fill="none" stroke="grey" stroke-width="2" d="M280.5,-215.7C280.5,-207.98 280.5,-198.71 280.5,-190.11"/>
<polygon fill="grey" stroke="grey" stroke-width="2" points="284,-190.1 280.5,-180.1 277,-190.1 284,-190.1"/>
</g>
<!-- 6 -->
<g id="node7" class="node">
<title>6</title>
<path fill="none" stroke="#56d873" stroke-width="2" stroke-dasharray="5,2" d="M194.5,-180C194.5,-180 156.5,-180 156.5,-180 150.5,-180 144.5,-174 144.5,-168 144.5,-168 144.5,-156 144.5,-156 144.5,-150 150.5,-144 156.5,-144 156.5,-144 194.5,-144 194.5,-144 200.5,-144 206.5,-150 206.5,-156 206.5,-156 206.5,-168 206.5,-168 206.5,-174 200.5,-180 194.5,-180"/>
<text text-anchor="middle" x="175.5" y="-159.5" font-family="sans" font-size="10.00">make_gtf</text>
</g>
<!-- 6&#45;&gt;0 -->
<g id="edge4" class="edge">
<title>6&#45;&gt;0</title>
<path fill="none" stroke="grey" stroke-width="2" d="M172.48,-143.87C168.22,-119.67 160.4,-75.21 155.32,-46.39"/>
<polygon fill="grey" stroke="grey" stroke-width="2" points="158.71,-45.43 153.53,-36.19 151.81,-46.64 158.71,-45.43"/>
</g>
<!-- 6&#45;&gt;8 -->
<g id="edge11" class="edge">
<title>6&#45;&gt;8</title>
<path fill="none" stroke="grey" stroke-width="2" d="M185.88,-143.7C190.76,-135.56 196.69,-125.69 202.08,-116.7"/>
<polygon fill="grey" stroke="grey" stroke-width="2" points="205.09,-118.48 207.24,-108.1 199.09,-114.88 205.09,-118.48"/>
</g>
<!-- 7 -->
<g id="node8" class="node">
<title>7</title>
<path fill="none" stroke="#70d856" stroke-width="2" stroke-dasharray="5,2" d="M204.5,-252C204.5,-252 146.5,-252 146.5,-252 140.5,-252 134.5,-246 134.5,-240 134.5,-240 134.5,-228 134.5,-228 134.5,-222 140.5,-216 146.5,-216 146.5,-216 204.5,-216 204.5,-216 210.5,-216 216.5,-222 216.5,-228 216.5,-228 216.5,-240 216.5,-240 216.5,-246 210.5,-252 204.5,-252"/>
<text text-anchor="middle" x="175.5" y="-231.5" font-family="sans" font-size="10.00">download_gff</text>
</g>
<!-- 7&#45;&gt;6 -->
<g id="edge9" class="edge">
<title>7&#45;&gt;6</title>
<path fill="none" stroke="grey" stroke-width="2" d="M175.5,-215.7C175.5,-207.98 175.5,-198.71 175.5,-190.11"/>
<polygon fill="grey" stroke="grey" stroke-width="2" points="179,-190.1 175.5,-180.1 172,-190.1 179,-190.1"/>
</g>
<!-- 8&#45;&gt;0 -->
<g id="edge5" class="edge">
<title>8&#45;&gt;0</title>
<path fill="none" stroke="grey" stroke-width="2" d="M200.94,-71.7C192.82,-63.22 182.91,-52.86 174.03,-43.58"/>
<polygon fill="grey" stroke="grey" stroke-width="2" points="176.31,-40.91 166.87,-36.1 171.26,-45.75 176.31,-40.91"/>
</g>
</g>
</svg>
