<?xml version="1.0" encoding="UTF-8" standalone="no"?>
<!DOCTYPE svg PUBLIC "-//W3C//DTD SVG 1.1//EN"
 "http://www.w3.org/Graphics/SVG/1.1/DTD/svg11.dtd">
<!-- Generated by graphviz version 2.43.0 (0)
 -->
<!-- Title: snakemake_dag Pages: 1 -->
<svg width="103pt" height="332pt"
 viewBox="0.00 0.00 103.00 332.00" xmlns="http://www.w3.org/2000/svg" xmlns:xlink="http://www.w3.org/1999/xlink">
<g id="graph0" class="graph" transform="scale(1 1) rotate(0) translate(4 328)">
<title>snakemake_dag</title>
<polygon fill="white" stroke="transparent" points="-4,4 -4,-328 99,-328 99,4 -4,4"/>
<!-- 0 -->
<g id="node1" class="node">
<title>0</title>
<path fill="none" stroke="#88d856" stroke-width="2" stroke-dasharray="5,2" d="M62.5,-36C62.5,-36 32.5,-36 32.5,-36 26.5,-36 20.5,-30 20.5,-24 20.5,-24 20.5,-12 20.5,-12 20.5,-6 26.5,0 32.5,0 32.5,0 62.5,0 62.5,0 68.5,0 74.5,-6 74.5,-12 74.5,-12 74.5,-24 74.5,-24 74.5,-30 68.5,-36 62.5,-36"/>
<text text-anchor="middle" x="47.5" y="-15.5" font-family="sans" font-size="10.00">all</text>
</g>
<!-- 1 -->
<g id="node2" class="node">
<title>1</title>
<path fill="none" stroke="#56d88a" stroke-width="2" stroke-dasharray="5,2" d="M74,-108C74,-108 21,-108 21,-108 15,-108 9,-102 9,-96 9,-96 9,-84 9,-84 9,-78 15,-72 21,-72 21,-72 74,-72 74,-72 80,-72 86,-78 86,-84 86,-84 86,-96 86,-96 86,-102 80,-108 74,-108"/>
<text text-anchor="middle" x="47.5" y="-87.5" font-family="sans" font-size="10.00">id_converter</text>
</g>
<!-- 1&#45;&gt;0 -->
<g id="edge1" class="edge">
<title>1&#45;&gt;0</title>
<path fill="none" stroke="grey" stroke-width="2" d="M47.5,-71.7C47.5,-63.98 47.5,-54.71 47.5,-46.11"/>
<polygon fill="grey" stroke="grey" stroke-width="2" points="51,-46.1 47.5,-36.1 44,-46.1 51,-46.1"/>
</g>
<!-- 2 -->
<g id="node3" class="node">
<title>2</title>
<path fill="none" stroke="#d85656" stroke-width="2" stroke-dasharray="5,2" d="M83,-180C83,-180 12,-180 12,-180 6,-180 0,-174 0,-168 0,-168 0,-156 0,-156 0,-150 6,-144 12,-144 12,-144 83,-144 83,-144 89,-144 95,-150 95,-156 95,-156 95,-168 95,-168 95,-174 89,-180 83,-180"/>
<text text-anchor="middle" x="47.5" y="-159.5" font-family="sans" font-size="10.00">diamond_blastx</text>
</g>
<!-- 2&#45;&gt;1 -->
<g id="edge2" class="edge">
<title>2&#45;&gt;1</title>
<path fill="none" stroke="grey" stroke-width="2" d="M47.5,-143.7C47.5,-135.98 47.5,-126.71 47.5,-118.11"/>
<polygon fill="grey" stroke="grey" stroke-width="2" points="51,-118.1 47.5,-108.1 44,-118.1 51,-118.1"/>
</g>
<!-- 3 -->
<g id="node4" class="node">
<title>3</title>
<path fill="none" stroke="#56c1d8" stroke-width="2" stroke-dasharray="5,2" d="M72.5,-252C72.5,-252 22.5,-252 22.5,-252 16.5,-252 10.5,-246 10.5,-240 10.5,-240 10.5,-228 10.5,-228 10.5,-222 16.5,-216 22.5,-216 22.5,-216 72.5,-216 72.5,-216 78.5,-216 84.5,-222 84.5,-228 84.5,-228 84.5,-240 84.5,-240 84.5,-246 78.5,-252 72.5,-252"/>
<text text-anchor="middle" x="47.5" y="-231.5" font-family="sans" font-size="10.00">longest_cds</text>
</g>
<!-- 3&#45;&gt;2 -->
<g id="edge3" class="edge">
<title>3&#45;&gt;2</title>
<path fill="none" stroke="grey" stroke-width="2" d="M47.5,-215.7C47.5,-207.98 47.5,-198.71 47.5,-190.11"/>
<polygon fill="grey" stroke="grey" stroke-width="2" points="51,-190.1 47.5,-180.1 44,-190.1 51,-190.1"/>
</g>
<!-- 4 -->
<g id="node5" class="node">
<title>4</title>
<path fill="none" stroke="#d8bc56" stroke-width="2" stroke-dasharray="5,2" d="M78.5,-324C78.5,-324 16.5,-324 16.5,-324 10.5,-324 4.5,-318 4.5,-312 4.5,-312 4.5,-300 4.5,-300 4.5,-294 10.5,-288 16.5,-288 16.5,-288 78.5,-288 78.5,-288 84.5,-288 90.5,-294 90.5,-300 90.5,-300 90.5,-312 90.5,-312 90.5,-318 84.5,-324 78.5,-324"/>
<text text-anchor="middle" x="47.5" y="-303.5" font-family="sans" font-size="10.00">download_cds</text>
</g>
<!-- 4&#45;&gt;3 -->
<g id="edge4" class="edge">
<title>4&#45;&gt;3</title>
<path fill="none" stroke="grey" stroke-width="2" d="M47.5,-287.7C47.5,-279.98 47.5,-270.71 47.5,-262.11"/>
<polygon fill="grey" stroke="grey" stroke-width="2" points="51,-262.1 47.5,-252.1 44,-262.1 51,-262.1"/>
</g>
</g>
</svg>
